<svg preserveAspectRatio="none" width="100%" height="100%" overflow="visible" style="display: block;" viewBox="0 0 80 80" fill="none" xmlns="http://www.w3.org/2000/svg">
<g id="4756261_blossom_festival_japan_sakura_stage_icon 1">
<g id="Vector">
<mask id="path-1-inside-1_0_34" fill="white">
<path d="M73.4232 60.1663H72.6349V22.3724C72.6349 22.3517 72.6349 22.3517 72.6349 22.331C72.6349 22.3103 72.6349 22.2896 72.6349 22.2689C72.6349 22.2482 72.6349 22.2482 72.6349 22.2275C72.6349 22.2068 72.6349 22.2068 72.6349 22.1861C72.6349 22.1655 72.6349 22.1448 72.6349 22.1241C72.6349 22.1034 72.6349 22.0827 72.6349 22.0827C72.6349 22.062 72.6349 22.062 72.6349 22.0413C72.6349 22.0206 72.6349 21.9999 72.6141 21.9792C72.6141 21.9585 72.6141 21.9378 72.5934 21.9378C72.5934 21.9171 72.5934 21.9171 72.5726 21.8964C72.5726 21.8757 72.5519 21.855 72.5519 21.8343C72.5519 21.8136 72.5311 21.7929 72.5311 21.7929C72.5311 21.7722 72.5311 21.7722 72.5104 21.7515C72.5104 21.7308 72.4896 21.7101 72.4896 21.6894C72.4896 21.6687 72.4689 21.648 72.4689 21.648L72.4481 21.6273C72.4274 21.6066 72.4274 21.5859 72.4066 21.5652C72.4066 21.5445 72.3859 21.5445 72.3859 21.5238L72.3652 21.5031C72.3444 21.4824 72.3444 21.4617 72.3237 21.441C72.3237 21.4203 72.3029 21.4203 72.3029 21.3996L72.2822 21.3789C72.2614 21.3582 72.2407 21.3375 72.2407 21.3168C72.2199 21.2962 72.2199 21.2962 72.2199 21.2755C60.5809 9.66407 48.61 4.22059 36.6598 5.08989C27.4481 5.77291 20.0415 10.1815 15.4772 13.7622C10.5394 17.6327 7.78008 21.2962 7.6556 21.4617C7.6556 21.4824 7.63485 21.4824 7.63485 21.5031C7.61411 21.5238 7.61411 21.5445 7.59336 21.5652L7.57261 21.5859L7.55187 21.6066C7.53112 21.6273 7.53112 21.648 7.51037 21.6687C7.51037 21.6894 7.48963 21.6894 7.48963 21.7101C7.48963 21.7101 7.48963 21.7308 7.46888 21.7308C7.46888 21.7515 7.44813 21.7722 7.44813 21.7929C7.44813 21.8136 7.42739 21.8343 7.42739 21.8343V21.855C7.42739 21.8757 7.40664 21.8964 7.40664 21.9171C7.40664 21.9378 7.38589 21.9585 7.38589 21.9999C7.38589 22.0206 7.38589 22.0413 7.36515 22.062C7.36515 22.0827 7.36514 22.1241 7.3444 22.1448C7.3444 22.1655 7.3444 22.1862 7.3444 22.2069C7.3444 22.2275 7.3444 22.2689 7.3444 22.2896C7.3444 22.3103 7.3444 22.3103 7.3444 22.331V60.1663H6.55602C5.70539 60.1663 5 60.8701 5 61.7187V68.6731C5 69.5217 5.70539 70.2254 6.55602 70.2254H24.3361V74.4477C24.3361 75.2963 25.0415 76.0001 25.8921 76.0001H54.1079C54.9585 76.0001 55.6639 75.2963 55.6639 74.4477V70.2254H73.444C74.2946 70.2254 75 69.5217 75 68.6731V61.7187C74.9793 60.8701 74.2946 60.1663 73.4232 60.1663ZM67.3029 55.2817L69.5228 52.8601V57.7033L67.3029 55.2817ZM63.0913 28.7887L60.8714 31.2103V26.3464L63.0913 28.7887ZM69.5228 44.4775L67.3029 42.0559L69.5228 39.6343V44.4775ZM69.1494 35.412L65.2075 39.7378L61.2656 35.412L65.2075 31.0861L69.1494 35.412ZM67.3029 28.7887L69.5228 26.3671V31.231L67.3029 28.7887ZM60.8921 39.6136L63.112 42.0352L60.8921 44.4568V39.6136ZM60.8921 52.8601L63.112 55.2817L60.8921 57.7033V52.8601ZM61.2656 48.6585L65.2075 44.3326L69.1494 48.6585L65.2075 52.9843L61.2656 48.6585ZM65.2075 26.4913L62.8423 23.9041H67.5726L65.2075 26.4913ZM57.7801 26.9259H22.1784V23.9041H57.7593V26.9259H57.7801ZM12.6556 28.7887L10.4357 31.2103V26.3464L12.6556 28.7887ZM19.0664 44.4775L16.8465 42.0559L19.0664 39.6343V44.4775ZM19.0664 31.231L16.8465 28.8094L19.0664 26.3878V31.231ZM18.6929 35.412L14.751 39.7378L10.8091 35.412L14.751 31.0861L18.6929 35.412ZM12.6556 42.0352L10.4357 44.4568V39.5929L12.6556 42.0352ZM14.751 44.3533L18.6929 48.6792L14.751 53.005L10.8091 48.6792L14.751 44.3533ZM19.0664 52.8601V57.7033L16.8465 55.2817L19.0664 52.8601ZM14.751 26.4913L12.3859 23.9248H17.0954L14.751 26.4913ZM12.6556 55.2817L10.4357 57.7033V52.8601L12.6556 55.2817ZM14.751 57.5998L17.1162 60.187H12.3859L14.751 57.5998ZM22.1784 30.0306H28.2573V31.6657H27.4689C26.6183 31.6657 25.9129 32.3694 25.9129 33.218C25.9129 34.0666 26.6183 34.7703 27.4689 34.7703H32.1784C33.029 34.7703 33.7344 34.0666 33.7344 33.218C33.7344 32.3694 33.029 31.6657 32.1784 31.6657H31.39V30.0306H38.4232V31.6657H37.6349C36.7842 31.6657 36.0788 32.3694 36.0788 33.218C36.0788 34.0666 36.7842 34.7703 37.6349 34.7703H42.3444C43.195 34.7703 43.9004 34.0666 43.9004 33.218C43.9004 32.3694 43.195 31.6657 42.3444 31.6657H41.556V30.0306H48.5892V31.6657H47.8008C46.9502 31.6657 46.2448 32.3694 46.2448 33.218C46.2448 34.0666 46.9502 34.7703 47.8008 34.7703H52.5104C53.361 34.7703 54.0664 34.0666 54.0664 33.218C54.0664 32.3694 53.361 31.6657 52.5104 31.6657H51.722V30.0306H57.8008V60.1663H22.1784V30.0306ZM65.2075 57.5998L67.5726 60.1663H62.8631L65.2075 57.5998ZM36.888 8.17384C46.9502 7.44942 57.1369 11.6924 67.1992 20.8201H59.3361H20.6224H12.2822C16.1618 16.7427 25 9.02244 36.888 8.17384ZM52.5311 72.9161H27.4274V68.4454H52.5311V72.9161ZM71.8672 67.1208H55.6432V66.8724C55.6432 66.0238 54.9378 65.3201 54.0871 65.3201H25.8714C25.0207 65.3201 24.3154 66.0238 24.3154 66.8724V67.1208H8.09129V63.271H8.87967H20.6432H59.3361H71.0996H71.888V67.1208H71.8672Z"/>
</mask>
<path d="M73.4232 60.1663H72.6349V22.3724C72.6349 22.3517 72.6349 22.3517 72.6349 22.331C72.6349 22.3103 72.6349 22.2896 72.6349 22.2689C72.6349 22.2482 72.6349 22.2482 72.6349 22.2275C72.6349 22.2068 72.6349 22.2068 72.6349 22.1861C72.6349 22.1655 72.6349 22.1448 72.6349 22.1241C72.6349 22.1034 72.6349 22.0827 72.6349 22.0827C72.6349 22.062 72.6349 22.062 72.6349 22.0413C72.6349 22.0206 72.6349 21.9999 72.6141 21.9792C72.6141 21.9585 72.6141 21.9378 72.5934 21.9378C72.5934 21.9171 72.5934 21.9171 72.5726 21.8964C72.5726 21.8757 72.5519 21.855 72.5519 21.8343C72.5519 21.8136 72.5311 21.7929 72.5311 21.7929C72.5311 21.7722 72.5311 21.7722 72.5104 21.7515C72.5104 21.7308 72.4896 21.7101 72.4896 21.6894C72.4896 21.6687 72.4689 21.648 72.4689 21.648L72.4481 21.6273C72.4274 21.6066 72.4274 21.5859 72.4066 21.5652C72.4066 21.5445 72.3859 21.5445 72.3859 21.5238L72.3652 21.5031C72.3444 21.4824 72.3444 21.4617 72.3237 21.441C72.3237 21.4203 72.3029 21.4203 72.3029 21.3996L72.2822 21.3789C72.2614 21.3582 72.2407 21.3375 72.2407 21.3168C72.2199 21.2962 72.2199 21.2962 72.2199 21.2755C60.5809 9.66407 48.61 4.22059 36.6598 5.08989C27.4481 5.77291 20.0415 10.1815 15.4772 13.7622C10.5394 17.6327 7.78008 21.2962 7.6556 21.4617C7.6556 21.4824 7.63485 21.4824 7.63485 21.5031C7.61411 21.5238 7.61411 21.5445 7.59336 21.5652L7.57261 21.5859L7.55187 21.6066C7.53112 21.6273 7.53112 21.648 7.51037 21.6687C7.51037 21.6894 7.48963 21.6894 7.48963 21.7101C7.48963 21.7101 7.48963 21.7308 7.46888 21.7308C7.46888 21.7515 7.44813 21.7722 7.44813 21.7929C7.44813 21.8136 7.42739 21.8343 7.42739 21.8343V21.855C7.42739 21.8757 7.40664 21.8964 7.40664 21.9171C7.40664 21.9378 7.38589 21.9585 7.38589 21.9999C7.38589 22.0206 7.38589 22.0413 7.36515 22.062C7.36515 22.0827 7.36514 22.1241 7.3444 22.1448C7.3444 22.1655 7.3444 22.1862 7.3444 22.2069C7.3444 22.2275 7.3444 22.2689 7.3444 22.2896C7.3444 22.3103 7.3444 22.3103 7.3444 22.331V60.1663H6.55602C5.70539 60.1663 5 60.8701 5 61.7187V68.6731C5 69.5217 5.70539 70.2254 6.55602 70.2254H24.3361V74.4477C24.3361 75.2963 25.0415 76.0001 25.8921 76.0001H54.1079C54.9585 76.0001 55.6639 75.2963 55.6639 74.4477V70.2254H73.444C74.2946 70.2254 75 69.5217 75 68.6731V61.7187C74.9793 60.8701 74.2946 60.1663 73.4232 60.1663ZM67.3029 55.2817L69.5228 52.8601V57.7033L67.3029 55.2817ZM63.0913 28.7887L60.8714 31.2103V26.3464L63.0913 28.7887ZM69.5228 44.4775L67.3029 42.0559L69.5228 39.6343V44.4775ZM69.1494 35.412L65.2075 39.7378L61.2656 35.412L65.2075 31.0861L69.1494 35.412ZM67.3029 28.7887L69.5228 26.3671V31.231L67.3029 28.7887ZM60.8921 39.6136L63.112 42.0352L60.8921 44.4568V39.6136ZM60.8921 52.8601L63.112 55.2817L60.8921 57.7033V52.8601ZM61.2656 48.6585L65.2075 44.3326L69.1494 48.6585L65.2075 52.9843L61.2656 48.6585ZM65.2075 26.4913L62.8423 23.9041H67.5726L65.2075 26.4913ZM57.7801 26.9259H22.1784V23.9041H57.7593V26.9259H57.7801ZM12.6556 28.7887L10.4357 31.2103V26.3464L12.6556 28.7887ZM19.0664 44.4775L16.8465 42.0559L19.0664 39.6343V44.4775ZM19.0664 31.231L16.8465 28.8094L19.0664 26.3878V31.231ZM18.6929 35.412L14.751 39.7378L10.8091 35.412L14.751 31.0861L18.6929 35.412ZM12.6556 42.0352L10.4357 44.4568V39.5929L12.6556 42.0352ZM14.751 44.3533L18.6929 48.6792L14.751 53.005L10.8091 48.6792L14.751 44.3533ZM19.0664 52.8601V57.7033L16.8465 55.2817L19.0664 52.8601ZM14.751 26.4913L12.3859 23.9248H17.0954L14.751 26.4913ZM12.6556 55.2817L10.4357 57.7033V52.8601L12.6556 55.2817ZM14.751 57.5998L17.1162 60.187H12.3859L14.751 57.5998ZM22.1784 30.0306H28.2573V31.6657H27.4689C26.6183 31.6657 25.9129 32.3694 25.9129 33.218C25.9129 34.0666 26.6183 34.7703 27.4689 34.7703H32.1784C33.029 34.7703 33.7344 34.0666 33.7344 33.218C33.7344 32.3694 33.029 31.6657 32.1784 31.6657H31.39V30.0306H38.4232V31.6657H37.6349C36.7842 31.6657 36.0788 32.3694 36.0788 33.218C36.0788 34.0666 36.7842 34.7703 37.6349 34.7703H42.3444C43.195 34.7703 43.9004 34.0666 43.9004 33.218C43.9004 32.3694 43.195 31.6657 42.3444 31.6657H41.556V30.0306H48.5892V31.6657H47.8008C46.9502 31.6657 46.2448 32.3694 46.2448 33.218C46.2448 34.0666 46.9502 34.7703 47.8008 34.7703H52.5104C53.361 34.7703 54.0664 34.0666 54.0664 33.218C54.0664 32.3694 53.361 31.6657 52.5104 31.6657H51.722V30.0306H57.8008V60.1663H22.1784V30.0306ZM65.2075 57.5998L67.5726 60.1663H62.8631L65.2075 57.5998ZM36.888 8.17384C46.9502 7.44942 57.1369 11.6924 67.1992 20.8201H59.3361H20.6224H12.2822C16.1618 16.7427 25 9.02244 36.888 8.17384ZM52.5311 72.9161H27.4274V68.4454H52.5311V72.9161ZM71.8672 67.1208H55.6432V66.8724C55.6432 66.0238 54.9378 65.3201 54.0871 65.3201H25.8714C25.0207 65.3201 24.3154 66.0238 24.3154 66.8724V67.1208H8.09129V63.271H8.87967H20.6432H59.3361H71.0996H71.888V67.1208H71.8672Z" fill="var(--fill-0, #F9F2E8)" stroke="var(--stroke-0, #0A3428)" mask="url(#path-1-inside-1_0_34)"/>
</g>
</g>
</svg>
