<svg preserveAspectRatio="none" width="100%" height="100%" overflow="visible" style="display: block;" viewBox="0 0 80 65.6792" fill="none" xmlns="http://www.w3.org/2000/svg">
<g id="Group">
<path id="Vector" d="M20.2069 26.5958L18.3196 24.7086C17.5148 25.5121 16.7981 26.3996 16.1882 27.3459L18.4304 28.794C18.9389 28.0053 19.5369 27.2658 20.2069 26.5958Z" fill="var(--fill-0, #2A3354)"/>
<path id="Vector_2" d="M17.3322 41.1812C16.0135 38.014 15.9708 34.3636 17.2187 31.1644L14.7322 30.1941C13.2361 34.03 13.2868 38.409 14.8697 42.2075L17.3322 41.1812Z" fill="var(--fill-0, #2A3354)"/>
<path id="Vector_3" d="M44.581 48.0747L43.4265 50.4811C45.5913 51.5209 47.9217 52.0481 50.3535 52.0481C52.4969 52.0481 54.5764 51.6343 56.5303 50.8175L55.5013 48.3537C52.0298 49.8058 47.9751 49.7044 44.581 48.0747Z" fill="var(--fill-0, #2A3354)"/>
<path id="Vector_4" d="M40.1992 44.7555L38.312 46.6427L39.026 47.3568C39.4905 47.8212 39.9897 48.263 40.5102 48.6714L42.1545 46.5693C41.7194 46.229 41.3003 45.8579 40.9119 45.4695L40.1992 44.7555Z" fill="var(--fill-0, #2A3354)"/>
<path id="Vector_5" d="M39.0547 19.9492C39.315 20.2094 39.6567 20.3402 39.9983 20.3402C40.34 20.3402 40.6817 20.2094 40.942 19.9492L48.95 11.9411C50.2713 10.6198 51.0001 8.86203 51.0001 6.99349C51.0001 5.12494 50.2713 3.36717 48.95 2.04584C46.5182 -0.385936 42.7264 -0.647533 39.9983 1.25438C37.2716 -0.648867 33.4785 -0.387271 31.0467 2.04584C29.7253 3.36717 28.9966 5.12494 28.9966 6.99349C28.9966 8.86203 29.7253 10.6198 31.0467 11.9411L39.0547 19.9492ZM32.9339 3.93307C33.7774 3.08956 34.8865 2.6678 35.9943 2.6678C37.1021 2.6678 38.2112 3.08956 39.0547 3.93307C39.5766 4.45493 40.4201 4.45493 40.942 3.93307C42.629 2.24604 45.3758 2.24604 47.0628 3.93307C47.8796 4.75123 48.3307 5.83766 48.3307 6.99349C48.3307 8.14931 47.8796 9.23574 47.0628 10.0539L39.9983 17.1183L32.9339 10.0539C32.1171 9.23574 31.666 8.14931 31.666 6.99349C31.666 5.83766 32.1171 4.75123 32.9339 3.93307Z" fill="var(--fill-0, #2A3354)"/>
<path id="Vector_6" d="M79.8203 50.4625C79.516 49.9393 78.8981 49.6857 78.3148 49.8445L68.6811 52.4725L58.7819 42.5732C62.0331 38.389 61.7462 32.3256 57.9036 28.483L47.5225 18.1019C47.0007 17.5801 46.1572 17.5801 45.6353 18.1019L39.999 23.7356L34.3653 18.1006C34.1144 17.8497 33.7767 17.7095 33.4217 17.7095C33.0666 17.7095 32.7276 17.8497 32.4781 18.1006L22.0969 28.4817C18.2544 32.3256 17.9675 38.3877 21.2187 42.5719L11.3194 52.4712L1.68575 49.8432C1.1025 49.6844 0.484543 49.9366 0.180237 50.4612C-0.124069 50.9843 -0.0359806 51.6477 0.391116 52.0748L13.6031 65.2867C14.0302 65.7138 14.6935 65.8019 15.2167 65.4976C15.7399 65.1933 15.9935 64.5754 15.8346 63.9921L13.2067 54.3584L23.106 44.4591C24.9705 45.9126 27.2461 46.708 29.6472 46.708C32.4994 46.708 35.1808 45.5976 37.1961 43.5809L39.999 40.7781L42.8031 43.5822C44.8198 45.5989 47.5012 46.7094 50.3534 46.7094C52.7545 46.7094 55.0301 45.9139 56.8946 44.4604L66.7939 54.3597L64.1659 63.9934C64.0071 64.578 64.2594 65.1946 64.7839 65.4989C65.3071 65.8033 65.9704 65.7152 66.3975 65.2881L79.6095 52.0761C80.0366 51.649 80.1233 50.9857 79.8203 50.4625ZM46.5776 20.9315L55.0714 29.4253L53.1562 31.3406C50.3827 34.114 46.695 35.6409 42.7751 35.6409H38.6363L35.2515 32.2562L46.5776 20.9315ZM33.4203 20.9315L38.1104 25.6228L32.4207 31.3126C31.8988 31.8344 31.8988 32.6779 32.4207 33.1998L34.6215 35.4007C31.6919 34.8788 28.9905 33.4894 26.8404 31.3406L24.9251 29.4253L33.4203 20.9315ZM5.82992 53.7418L10.6267 55.0498L11.9347 59.8466L5.82992 53.7418ZM35.3076 41.695C33.7954 43.2072 31.784 44.04 29.6459 44.04C27.5051 44.04 25.495 43.2072 23.9828 41.695C21.184 38.8962 20.9158 34.5345 23.1353 31.4087L24.9545 33.2278C28.2325 36.5058 32.5902 38.3103 37.2228 38.3103H37.5311L38.1117 38.8908L35.3076 41.695ZM44.6903 41.695L41.3056 38.3103H42.7751C47.4091 38.3103 51.7655 36.5058 55.0434 33.2278L56.8626 31.4087C59.0821 34.5345 58.8139 38.8962 56.0151 41.695C54.5029 43.2072 52.4915 44.04 50.3534 44.04C48.2126 44.04 46.2012 43.2072 44.6903 41.695ZM68.0619 59.8479L69.3698 55.0511L74.1667 53.7431L68.0619 59.8479Z" fill="var(--fill-0, #2A3354)"/>
</g>
</svg>
