<svg preserveAspectRatio="none" width="100%" height="100%" overflow="visible" style="display: block;" viewBox="0 0 80 80" fill="none" xmlns="http://www.w3.org/2000/svg">
<g id="2884791_suit_tie_tuxedo_wedding_icon">
<path id="Vector" d="M28.2707 12.8724C28.3836 12.8885 28.4917 12.9271 28.59 12.9847L33.3966 15.4847L33.4005 15.4867C33.5601 15.5733 33.6888 15.7075 33.7687 15.8705C33.8436 16.0233 33.8706 16.1942 33.8498 16.3627C33.863 16.5242 33.8328 16.6866 33.7589 16.8314C33.6794 16.9873 33.5548 17.1161 33.4015 17.2006L33.3966 17.2035L28.59 19.7035H28.589C28.4645 19.7673 28.3265 19.8007 28.1867 19.8002H28.1837C27.9902 19.7973 27.8029 19.7303 27.6515 19.6097C27.5001 19.4891 27.3929 19.3212 27.3468 19.1332C27.3008 18.9451 27.318 18.7467 27.3966 18.5697C27.4753 18.3927 27.6109 18.2466 27.7814 18.1547L27.7843 18.1537L31.2589 16.3441L27.7843 14.5345V14.5336C27.6808 14.4863 27.5868 14.4204 27.5089 14.3373C27.4269 14.2497 27.3637 14.1457 27.3234 14.0326C27.2831 13.9195 27.2664 13.7988 27.2746 13.6791C27.2828 13.5592 27.3159 13.4419 27.3712 13.3353C27.4266 13.2287 27.5035 13.1346 27.5968 13.059C27.6902 12.9833 27.7984 12.927 27.9142 12.8949C28.03 12.8629 28.1517 12.8556 28.2707 12.8724Z" fill="var(--fill-0, #2A3354)" stroke="var(--stroke-0, #2A3354)" stroke-width="0.5"/>
<path id="Vector_2" d="M51.7389 12.8951C51.8535 12.8854 51.9692 12.8983 52.0788 12.9332C52.1884 12.9681 52.2897 13.0249 52.3776 13.0992C52.4436 13.155 52.5008 13.2203 52.5475 13.2926L52.5915 13.3668L52.5944 13.3736C52.6907 13.5764 52.7054 13.8088 52.6354 14.0221C52.5654 14.2354 52.4162 14.4138 52.2184 14.5201L52.2155 14.5221L48.7419 16.3307L52.2155 18.1344L52.2184 18.1363C52.3889 18.2283 52.5246 18.3744 52.6032 18.5514C52.6816 18.7282 52.6989 18.926 52.653 19.1139C52.607 19.302 52.4998 19.4697 52.3483 19.5904C52.1968 19.7111 52.0097 19.778 51.8161 19.7809H51.8131C51.6733 19.7814 51.5352 19.7489 51.4108 19.6852L51.4098 19.6842L46.6032 17.1842L46.6003 17.1832C46.4453 17.1 46.3191 16.9711 46.238 16.815C46.1615 16.6678 46.1301 16.5024 46.1442 16.3375C46.1301 16.1726 46.1615 16.0072 46.238 15.86C46.3191 15.7039 46.4453 15.575 46.6003 15.4918L46.6032 15.4908L51.4098 12.9908C51.512 12.9378 51.6242 12.9049 51.7389 12.8951Z" fill="var(--fill-0, #2A3354)" stroke="var(--stroke-0, #2A3354)" stroke-width="0.5"/>
<path id="Vector_3" d="M56.1719 5.68906C56.6036 5.64577 57.0395 5.69479 57.4512 5.83164C57.8768 5.96947 58.2682 6.19705 58.5977 6.49961C58.9268 6.80173 59.1868 7.17102 59.3604 7.58261H59.3614C60.5541 10.3592 61.169 13.3497 61.169 16.3717C61.169 19.3936 60.554 22.3841 59.3614 25.1607L59.3604 25.1627C59.1841 25.5675 58.9242 25.9309 58.5977 26.2281C58.2713 26.5253 57.8853 26.7497 57.4659 26.8873C57.0501 27.0241 56.6094 27.0724 56.1739 27.0279C55.7385 26.9834 55.3171 26.8474 54.9376 26.6295V26.6285L43.8477 20.6832C43.2256 21.2081 42.4371 21.4987 41.6192 21.4996H38.379C37.5559 21.4935 36.764 21.1948 36.1436 20.6598L25.0499 26.6139L25.0489 26.6129C24.6413 26.8462 24.1869 26.983 23.7198 27.0123L23.5176 27.0191C23.2707 27.018 23.0248 26.9881 22.7852 26.9303L22.5479 26.8629C22.1259 26.7269 21.7372 26.503 21.4083 26.2057C21.0793 25.9083 20.8175 25.5436 20.6397 25.1373L20.6387 25.1363C19.446 22.3597 18.8312 19.3692 18.8311 16.3473C18.8311 13.3252 19.4459 10.334 20.6387 7.55722H20.6397C20.8145 7.15347 21.0728 6.7906 21.3975 6.49375C21.7221 6.19709 22.1059 5.97247 22.5235 5.83457C22.9412 5.69662 23.3838 5.64886 23.8214 5.69394C24.2563 5.7388 24.6767 5.87449 25.0557 6.09238L36.1514 12.0338C36.7735 11.509 37.5632 11.2192 38.3809 11.2184H41.6251L41.7891 11.2232C42.5476 11.2599 43.2732 11.5445 43.8536 12.0338L54.9503 6.07968C55.3255 5.86514 55.7418 5.73223 56.1719 5.68906ZM23.6632 7.43418C23.4705 7.41332 23.2753 7.43301 23.0909 7.49277C22.9059 7.55461 22.736 7.65533 22.5919 7.78671C22.4476 7.9182 22.3326 8.07879 22.254 8.25742C21.1589 10.8138 20.5938 13.5662 20.5938 16.3473C20.5939 19.1285 21.1587 21.8807 22.254 24.4371L22.3194 24.567C22.3917 24.6936 22.4837 24.8082 22.5919 24.9068C22.7002 25.0055 22.8232 25.0867 22.9561 25.1471L23.0919 25.2008L23.2305 25.2389C23.3703 25.2696 23.5144 25.2782 23.6573 25.2633C23.8481 25.2433 24.0331 25.1821 24.1983 25.0846L24.2071 25.0787L35.1153 19.2633C34.9503 18.852 34.8665 18.412 34.8692 17.9674V14.7242C34.8714 14.2906 34.9556 13.8618 35.1163 13.4605L24.2198 7.6207L24.211 7.61582C24.0433 7.51744 23.8564 7.45514 23.6632 7.43418ZM38.3809 12.9684C37.9145 12.9684 37.4671 13.1537 37.1368 13.483C36.8064 13.8124 36.6207 14.2597 36.6192 14.7262V17.9928L36.628 18.1666C36.6691 18.5692 36.8477 18.9477 37.1368 19.2359C37.4671 19.5652 37.9146 19.7495 38.3809 19.7496H41.6192C41.8519 19.7496 42.0822 19.7034 42.2969 19.6139C42.5118 19.5243 42.7073 19.3935 42.8712 19.2281C43.0349 19.0628 43.1644 18.8666 43.252 18.651C43.3396 18.4353 43.3831 18.204 43.3809 17.9713V14.7262L43.3721 14.5523C43.3311 14.1497 43.1525 13.7713 42.8633 13.483C42.5331 13.1538 42.0855 12.9685 41.6192 12.9684H38.3809ZM45.1309 18.0006C45.1293 18.4341 45.0438 18.8623 44.8829 19.2633L55.7803 25.0982L55.7891 25.1031L55.918 25.1695C56.0504 25.2294 56.192 25.2681 56.337 25.2838C56.5295 25.3046 56.7241 25.2848 56.9083 25.2252C57.0935 25.1634 57.264 25.0637 57.4083 24.9322C57.5407 24.8115 57.647 24.6657 57.7247 24.5045V24.4859L57.7452 24.4391C58.841 21.8821 59.4063 19.1291 59.4063 16.3473C59.4063 13.5662 58.8413 10.8138 57.7462 8.25742L57.6807 8.12656C57.6084 8 57.5164 7.88532 57.4083 7.78671C57.264 7.65522 57.0934 7.55557 56.9083 7.49375V7.49277C56.7262 7.43321 56.5334 7.41327 56.3428 7.4332C56.1518 7.45321 55.967 7.51356 55.8008 7.60996L55.793 7.61386L44.8829 13.4605C45.0437 13.8618 45.1288 14.2905 45.1309 14.7242V18.0006Z" fill="var(--fill-0, #2A3354)" stroke="var(--stroke-0, #2A3354)" stroke-width="0.5"/>
<path id="Vector_4" d="M64.0032 13.7933C64.2054 13.7933 64.4006 13.863 64.556 13.9895L64.6204 14.0481L75.4456 24.8733C75.6086 25.0373 75.7005 25.2594 75.7005 25.4905C75.7005 25.6927 75.6307 25.8879 75.5042 26.0433L75.4456 26.1077L66.7161 34.8362L75.4769 43.5667L75.4827 43.5726H75.4817C75.6343 43.7348 75.72 43.9494 75.72 44.1722C75.72 44.392 75.6355 44.6025 75.4866 44.764L75.4876 44.7649L49.7503 74.0276C49.6683 74.1209 49.5675 74.1961 49.4544 74.2474C49.3695 74.2858 49.2791 74.3097 49.1868 74.3196L49.094 74.3255H44.3128V74.3235C44.1759 74.3281 44.0397 74.3021 43.9153 74.2444C43.7875 74.1851 43.6761 74.0954 43.5901 73.9837C43.5043 73.872 43.4467 73.7415 43.4222 73.6028C43.3977 73.4642 43.4072 73.322 43.4495 73.1878L55.9485 33.094L55.9788 33.013C56.0578 32.8276 56.199 32.6745 56.3792 32.5804C56.5851 32.4729 56.8256 32.4512 57.0472 32.5208C57.2686 32.5904 57.4534 32.7457 57.5608 32.9515C57.668 33.1569 57.6886 33.3963 57.6194 33.6175L45.4896 72.5755H48.6927L73.6253 44.2034L64.8606 35.4397V35.4388C64.7792 35.3577 64.7145 35.2616 64.6702 35.1556C64.6258 35.0489 64.6028 34.9342 64.6028 34.8186C64.6029 34.7033 64.6259 34.5892 64.6702 34.4827C64.7146 34.3763 64.7788 34.2788 64.8606 34.1976L73.5892 25.4925L63.386 15.2893C63.3043 15.2081 63.239 15.1116 63.1946 15.0052C63.1503 14.8987 63.1273 14.7845 63.1273 14.6692C63.1273 14.5538 63.1503 14.4389 63.1946 14.3323C63.239 14.2257 63.304 14.1285 63.386 14.0472C63.55 13.8843 63.7721 13.7933 64.0032 13.7933Z" fill="var(--fill-0, #2A3354)" stroke="var(--stroke-0, #2A3354)" stroke-width="0.5"/>
<path id="Vector_5" d="M15.9968 13.7933C16.2276 13.7933 16.4491 13.8846 16.613 14.0472H16.614C16.696 14.1285 16.7609 14.2257 16.8054 14.3323C16.8497 14.4389 16.8727 14.5538 16.8727 14.6692C16.8727 14.7845 16.8497 14.8987 16.8054 15.0052C16.7609 15.1118 16.6959 15.209 16.614 15.2903L16.613 15.2893L6.40986 25.4925L15.1384 34.2161C15.2204 34.2975 15.2854 34.3946 15.3298 34.5013C15.3741 34.6078 15.3971 34.7218 15.3972 34.8372C15.3972 34.9527 15.3742 35.0675 15.3298 35.1741C15.2855 35.2804 15.22 35.3762 15.1384 35.4573L6.37372 44.222L31.3073 72.5813H34.5417L22.4108 33.6243C22.3766 33.5149 22.3646 33.3997 22.3747 33.2854C22.3848 33.1709 22.4172 33.0592 22.4704 32.9573C22.5236 32.8554 22.5961 32.7645 22.6843 32.6907C22.7724 32.6169 22.8745 32.5611 22.9841 32.5267C23.0937 32.4922 23.2094 32.4804 23.3239 32.4905C23.4385 32.5007 23.5501 32.533 23.652 32.5862C23.754 32.6394 23.8448 32.7119 23.9186 32.8001C23.9741 32.8663 24.0188 32.9406 24.0524 33.0198L24.0827 33.0999V33.1009L36.5827 73.1946H36.5817C36.6239 73.3287 36.6335 73.4712 36.6091 73.6097C36.5845 73.7482 36.5269 73.879 36.4411 73.9905C36.3552 74.1021 36.2436 74.191 36.1159 74.2503C35.9915 74.308 35.8554 74.335 35.7184 74.3304V74.3313H30.9372C30.813 74.3312 30.69 74.3045 30.5768 74.2532C30.4919 74.2147 30.4138 74.1629 30.3454 74.0999L30.2809 74.0335L4.54364 44.7718L4.54462 44.7708C4.39546 44.6092 4.31122 44.3981 4.31122 44.178C4.31125 43.9553 4.39695 43.7407 4.5495 43.5784L4.55439 43.5735L13.2839 34.8372L4.55439 26.1077C4.39142 25.9438 4.2995 25.7217 4.2995 25.4905C4.29953 25.2594 4.39144 25.0373 4.55439 24.8733L15.3796 14.0481L15.444 13.9895C15.5994 13.863 15.7946 13.7933 15.9968 13.7933Z" fill="var(--fill-0, #2A3354)" stroke="var(--stroke-0, #2A3354)" stroke-width="0.5"/>
<path id="Vector_6" d="M64.3776 50.2478C64.4942 50.2377 64.6119 50.2517 64.7233 50.2878C64.8347 50.324 64.9385 50.3819 65.027 50.4587C65.1154 50.5355 65.1873 50.6299 65.2389 50.7351C65.2903 50.8401 65.3203 50.9542 65.3268 51.071C65.3333 51.1879 65.3166 51.3055 65.277 51.4157C65.2382 51.5236 65.1772 51.6219 65.1002 51.7067L65.1012 51.7077L56.9762 61.0388L56.9752 61.0397C56.8923 61.1342 56.7901 61.2101 56.6754 61.2614C56.5607 61.3128 56.4359 61.3387 56.3102 61.3376H56.3092C56.0997 61.3351 55.898 61.2574 55.7408 61.1188V61.1179C55.5669 60.9659 55.4593 60.7517 55.443 60.5212C55.4266 60.2899 55.5031 60.0617 55.6549 59.8864V59.8854L63.7799 50.5612C63.853 50.4732 63.9424 50.4 64.0436 50.3464C64.1471 50.2916 64.2609 50.2579 64.3776 50.2478Z" fill="var(--fill-0, #2A3354)" stroke="var(--stroke-0, #2A3354)" stroke-width="0.5"/>
<path id="Vector_7" d="M67.2445 46.9836C67.3599 46.9755 67.4758 46.9906 67.5854 47.0276C67.6951 47.0647 67.7972 47.1229 67.8842 47.1995V47.2004C68.0579 47.3537 68.1644 47.5698 68.1791 47.801C68.1937 48.0321 68.116 48.2598 67.9633 48.4338L67.9623 48.4329L67.0014 49.5393L67.0004 49.5383C66.9185 49.6337 66.8177 49.7113 66.7035 49.7639C66.6175 49.8035 66.5258 49.8289 66.432 49.8391L66.3373 49.844C66.1692 49.8438 66.0049 49.7946 65.8637 49.7034C65.7225 49.6121 65.6097 49.4825 65.5404 49.3293C65.4712 49.1761 65.4482 49.0054 65.4731 48.8391C65.498 48.673 65.5702 48.5171 65.6811 48.3909L66.641 47.2873L66.7006 47.2248C66.7633 47.1648 66.8347 47.1146 66.9125 47.0754C67.016 47.0233 67.129 46.9918 67.2445 46.9836Z" fill="var(--fill-0, #2A3354)" stroke="var(--stroke-0, #2A3354)" stroke-width="0.5"/>
<path id="Vector_8" d="M15.4936 19.0464C15.6092 19.0464 15.7239 19.0693 15.8306 19.1138C15.937 19.1582 16.0335 19.2233 16.1147 19.3052L16.1724 19.3686C16.2992 19.5241 16.3696 19.7199 16.3696 19.9224C16.3695 20.1533 16.2776 20.3747 16.1147 20.5386V20.5395L10.7016 25.9516L10.7007 25.9526C10.619 26.0336 10.522 26.0976 10.4155 26.1411C10.3095 26.1844 10.1961 26.206 10.0815 26.2056L10.0825 26.2065H10.0796V26.2056C9.96548 26.2058 9.85222 26.1843 9.74657 26.1411C9.64008 26.0976 9.5431 26.0336 9.46142 25.9526C9.3794 25.8713 9.31443 25.7741 9.27001 25.6675C9.22568 25.561 9.20266 25.4469 9.20263 25.3315C9.20263 25.216 9.22559 25.1012 9.27001 24.9946C9.3143 24.8884 9.3788 24.7916 9.46044 24.7104L14.8735 19.3042C14.9547 19.2227 15.0515 19.158 15.1577 19.1138C15.2642 19.0694 15.3783 19.0464 15.4936 19.0464Z" fill="var(--fill-0, #2A3354)" stroke="var(--stroke-0, #2A3354)" stroke-width="0.5"/>
<path id="Vector_9" d="M40 30.25C41.001 30.25 41.8125 31.0615 41.8125 32.0625C41.8125 33.0635 41.001 33.875 40 33.875C38.999 33.875 38.1875 33.0635 38.1875 32.0625C38.1875 31.0615 38.999 30.25 40 30.25Z" fill="var(--fill-0, #2A3354)" stroke="var(--stroke-0, #2A3354)" stroke-width="0.5"/>
<path id="Vector_10" d="M40 40.9375C41.001 40.9375 41.8125 41.749 41.8125 42.75C41.8125 43.751 41.001 44.5625 40 44.5625C38.999 44.5625 38.1875 43.751 38.1875 42.75C38.1875 41.749 38.999 40.9375 40 40.9375Z" fill="var(--fill-0, #2A3354)" stroke="var(--stroke-0, #2A3354)" stroke-width="0.5"/>
<path id="Vector_11" d="M40 51.625C41.001 51.625 41.8125 52.4365 41.8125 53.4375C41.8125 54.4385 41.001 55.25 40 55.25C38.999 55.25 38.1875 54.4385 38.1875 53.4375C38.1875 52.4365 38.999 51.625 40 51.625Z" fill="var(--fill-0, #2A3354)" stroke="var(--stroke-0, #2A3354)" stroke-width="0.5"/>
</g>
</svg>
