<svg preserveAspectRatio="none" width="100%" height="100%" overflow="visible" style="display: block;" viewBox="0 0 74.9208 62.2272" fill="none" xmlns="http://www.w3.org/2000/svg">
<g id="Group">
<path id="Vector" d="M68.7556 16.6084C68.7556 15.8352 68.1288 15.2084 67.3556 15.2084H65.8268C65.0536 15.2084 64.4268 15.8352 64.4268 16.6084C64.4268 17.3816 65.0536 18.0084 65.8268 18.0084H67.3556C68.1288 18.0084 68.7556 17.3816 68.7556 16.6084Z" fill="var(--fill-0, #2A3354)"/>
<path id="Vector_2" d="M67.6068 22.5876C67.6068 21.8144 66.98 21.1876 66.2068 21.1876H58.9644C58.1912 21.1876 57.5644 21.8144 57.5644 22.5876V29.0308C57.5644 29.804 58.1912 30.4308 58.9644 30.4308H66.2068C66.98 30.4308 67.6068 29.804 67.6068 29.0308V22.5876ZM64.8068 27.6308H60.3644V23.9876H64.8068V27.6308Z" fill="var(--fill-0, #2A3354)"/>
<path id="Vector_3" d="M67.6068 34.5384C67.6068 33.7652 66.98 33.1384 66.2068 33.1384H58.9644C58.1912 33.1384 57.5644 33.7652 57.5644 34.5384V40.982C57.5644 41.7552 58.1912 42.382 58.9644 42.382H66.2068C66.98 42.382 67.6068 41.7552 67.6068 40.982V34.5384ZM64.8068 39.5816H60.3644V35.938H64.8068V39.5816Z" fill="var(--fill-0, #2A3354)"/>
<path id="Vector_4" d="M42.0224 33.4688C41.3244 32.722 40.3884 32.3104 39.3868 32.3104C38.6368 32.3104 37.9236 32.5412 37.3188 32.9712C36.7152 32.5412 36.0012 32.3104 35.2496 32.3104C34.2496 32.3104 33.3144 32.7216 32.6152 33.4692C31.2108 34.9736 31.2112 37.328 32.616 38.83L36.2968 42.7652C36.5616 43.0484 36.9316 43.2088 37.3196 43.2088C37.7072 43.2088 38.0776 43.048 38.3424 42.7648L42.0224 38.83C43.4036 37.3536 43.404 34.9484 42.0224 33.4688ZM39.9788 36.916L37.3192 39.7592L34.6612 36.9176C34.272 36.5016 34.2724 35.7976 34.6612 35.3812C34.8704 35.1576 35.0968 35.1108 35.25 35.1108C35.4044 35.1108 35.632 35.1576 35.8408 35.3812L36.2972 35.8692C36.562 36.1524 36.932 36.3128 37.3196 36.3128H37.3208C37.7088 36.3124 38.0792 36.1512 38.3436 35.8672L38.7972 35.3808C38.96 35.2064 39.17 35.1104 39.3876 35.1104C39.5416 35.1104 39.7688 35.1572 39.9776 35.38C40.3664 35.7976 40.3668 36.5016 39.9788 36.916Z" fill="var(--fill-0, #2A3354)"/>
<path id="Vector_5" d="M73.5208 14.0832C72.7476 14.0832 72.1208 14.71 72.1208 15.4832V54.7644C72.1208 57.3356 70.0292 59.4272 67.458 59.4272H7.4628C4.8916 59.4272 2.8 57.3356 2.8 54.7644V11.096C2.8 8.5248 4.8916 6.4332 7.4628 6.4332H11.5736V8.6664C11.5736 9.4396 12.2004 10.0664 12.9736 10.0664C13.7468 10.0664 14.3736 9.4396 14.3736 8.6664V6.4332H19.6888V8.6664C19.6888 9.4396 20.3156 10.0664 21.0888 10.0664C21.862 10.0664 22.4888 9.4396 22.4888 8.6664V6.4332H27.804V8.6664C27.804 9.4396 28.4308 10.0664 29.204 10.0664C29.9772 10.0664 30.604 9.4396 30.604 8.6664V6.4332H35.9192V8.6664C35.9192 9.4396 36.546 10.0664 37.3192 10.0664C38.0924 10.0664 38.7192 9.4396 38.7192 8.6664V6.4332H44.0348V8.6664C44.0348 9.4396 44.6616 10.0664 45.4348 10.0664C46.208 10.0664 46.8348 9.4396 46.8348 8.6664V6.4332H52.1496V8.6664C52.1496 9.4396 52.7764 10.0664 53.5496 10.0664C54.3228 10.0664 54.9496 9.4396 54.9496 8.6664V6.4332H60.2648V8.6664C60.2648 9.4396 60.8916 10.0664 61.6648 10.0664C62.438 10.0664 63.0648 9.4396 63.0648 8.6664V6.4332H67.458C70.0292 6.4332 72.1208 8.5248 72.1208 11.096C72.1208 11.8692 72.7476 12.496 73.5208 12.496C74.294 12.496 74.9208 11.8692 74.9208 11.096C74.9208 6.9808 71.5732 3.6332 67.458 3.6332H63.0648V1.4C63.0648 0.6268 62.438 0 61.6648 0C60.8916 0 60.2648 0.6268 60.2648 1.4V3.6332H54.9496V1.4C54.9496 0.6268 54.3228 0 53.5496 0C52.7764 0 52.1496 0.6268 52.1496 1.4V3.6332H46.8348V1.4C46.8348 0.6268 46.208 0 45.4348 0C44.6616 0 44.0348 0.6268 44.0348 1.4V3.6332H38.7192V1.4C38.7192 0.6268 38.0928 0 37.3192 0C36.5456 0 35.9192 0.6268 35.9192 1.4V3.6332H30.604V1.4C30.604 0.6268 29.9772 0 29.204 0C28.4308 0 27.804 0.6268 27.804 1.4V3.6332H22.4888V1.4C22.4888 0.6268 21.862 0 21.0888 0C20.3156 0 19.6888 0.6268 19.6888 1.4V3.6332H14.3736V1.4C14.3736 0.6268 13.7468 0 12.9736 0C12.2004 0 11.5736 0.6268 11.5736 1.4V3.6332H7.4628C3.3476 3.6332 0 6.9812 0 11.096V54.7644C0 58.8796 3.3476 62.2272 7.4628 62.2272H67.458C71.5732 62.2272 74.9208 58.8792 74.9208 54.7644V15.4832C74.9208 14.71 74.294 14.0832 73.5208 14.0832Z" fill="var(--fill-0, #2A3354)"/>
<path id="Vector_6" d="M9.094 18.0084C9.8672 18.0084 10.494 17.3816 10.494 16.6084C10.494 15.8352 9.8672 15.2084 9.094 15.2084H7.5652C6.792 15.2084 6.1652 15.8352 6.1652 16.6084C6.1652 17.3816 6.792 18.0084 7.5652 18.0084H9.094Z" fill="var(--fill-0, #2A3354)"/>
<path id="Vector_7" d="M18.8172 16.6084C18.8172 15.8352 18.1904 15.2084 17.4172 15.2084H15.8884C15.1152 15.2084 14.4884 15.8352 14.4884 16.6084C14.4884 17.3816 15.1152 18.0084 15.8884 18.0084H17.4172C18.1904 18.0084 18.8172 17.3816 18.8172 16.6084Z" fill="var(--fill-0, #2A3354)"/>
<path id="Vector_8" d="M25.74 18.0084C26.5132 18.0084 27.14 17.3816 27.14 16.6084C27.14 15.8352 26.5132 15.2084 25.74 15.2084H24.2112C23.438 15.2084 22.8112 15.8352 22.8112 16.6084C22.8112 17.3816 23.438 18.0084 24.2112 18.0084H25.74Z" fill="var(--fill-0, #2A3354)"/>
<path id="Vector_9" d="M34.0632 15.2084H32.5344C31.7612 15.2084 31.1344 15.8352 31.1344 16.6084C31.1344 17.3816 31.7612 18.0084 32.5344 18.0084H34.0632C34.8364 18.0084 35.4632 17.3816 35.4632 16.6084C35.4632 15.8352 34.8364 15.2084 34.0632 15.2084Z" fill="var(--fill-0, #2A3354)"/>
<path id="Vector_10" d="M43.786 16.6084C43.786 15.8352 43.1592 15.2084 42.386 15.2084H40.8576C40.0844 15.2084 39.4576 15.8352 39.4576 16.6084C39.4576 17.3816 40.0844 18.0084 40.8576 18.0084H42.386C43.1592 18.0084 43.786 17.3816 43.786 16.6084Z" fill="var(--fill-0, #2A3354)"/>
<path id="Vector_11" d="M50.7092 18.0084C51.4824 18.0084 52.1092 17.3816 52.1092 16.6084C52.1092 15.8352 51.4824 15.2084 50.7092 15.2084H49.1808C48.4076 15.2084 47.7808 15.8352 47.7808 16.6084C47.7808 17.3816 48.4076 18.0084 49.1808 18.0084H50.7092Z" fill="var(--fill-0, #2A3354)"/>
<path id="Vector_12" d="M60.4328 16.6084C60.4328 15.8352 59.806 15.2084 59.0328 15.2084H57.504C56.7308 15.2084 56.104 15.8352 56.104 16.6084C56.104 17.3816 56.7308 18.0084 57.504 18.0084H59.0328C59.8056 18.0084 60.4328 17.3816 60.4328 16.6084Z" fill="var(--fill-0, #2A3354)"/>
<path id="Vector_13" d="M17.3564 22.5876C17.3564 21.8144 16.7296 21.1876 15.9564 21.1876H8.7136C7.9404 21.1876 7.3136 21.8144 7.3136 22.5876V29.0308C7.3136 29.804 7.9404 30.4308 8.7136 30.4308H15.9564C16.7296 30.4308 17.3564 29.804 17.3564 29.0308V22.5876ZM14.5564 27.6308H10.1136V23.9876H14.5564V27.6308Z" fill="var(--fill-0, #2A3354)"/>
<path id="Vector_14" d="M29.9192 22.5876C29.9192 21.8144 29.2924 21.1876 28.5192 21.1876H21.2764C20.5032 21.1876 19.8764 21.8144 19.8764 22.5876V29.0308C19.8764 29.804 20.5032 30.4308 21.2764 30.4308H28.5192C29.2924 30.4308 29.9192 29.804 29.9192 29.0308V22.5876ZM27.1192 27.6308H22.6764V23.9876H27.1192V27.6308Z" fill="var(--fill-0, #2A3354)"/>
<path id="Vector_15" d="M32.4392 22.5876V29.0308C32.4392 29.804 33.066 30.4308 33.8392 30.4308H41.082C41.8552 30.4308 42.482 29.804 42.482 29.0308V22.5876C42.482 21.8144 41.8552 21.1876 41.082 21.1876H33.8392C33.066 21.1876 32.4392 21.814 32.4392 22.5876ZM35.2392 23.9876H39.682V27.6308H35.2392V23.9876Z" fill="var(--fill-0, #2A3354)"/>
<path id="Vector_16" d="M55.0444 22.5876C55.0444 21.8144 54.4176 21.1876 53.6444 21.1876H46.402C45.6288 21.1876 45.002 21.8144 45.002 22.5876V29.0308C45.002 29.804 45.6288 30.4308 46.402 30.4308H53.6444C54.4176 30.4308 55.0444 29.804 55.0444 29.0308V22.5876ZM52.2444 27.6308H47.802V23.9876H52.2444V27.6308Z" fill="var(--fill-0, #2A3354)"/>
<path id="Vector_17" d="M17.3564 34.5384C17.3564 33.7652 16.7296 33.1384 15.9564 33.1384H8.7136C7.9404 33.1384 7.3136 33.7652 7.3136 34.5384V40.982C7.3136 41.7552 7.9404 42.382 8.7136 42.382H15.9564C16.7296 42.382 17.3564 41.7552 17.3564 40.982V34.5384ZM14.5564 39.5816H10.1136V35.938H14.5564V39.5816Z" fill="var(--fill-0, #2A3354)"/>
<path id="Vector_18" d="M29.9192 34.5384C29.9192 33.7652 29.2924 33.1384 28.5192 33.1384H21.2764C20.5032 33.1384 19.8764 33.7652 19.8764 34.5384V40.982C19.8764 41.7552 20.5032 42.382 21.2764 42.382H28.5192C29.2924 42.382 29.9192 41.7552 29.9192 40.982V34.5384ZM27.1192 39.5816H22.6764V35.938H27.1192V39.5816Z" fill="var(--fill-0, #2A3354)"/>
<path id="Vector_19" d="M55.0444 34.5384C55.0444 33.7652 54.4176 33.1384 53.6444 33.1384H46.402C45.6288 33.1384 45.002 33.7652 45.002 34.5384V40.982C45.002 41.7552 45.6288 42.382 46.402 42.382H53.6444C54.4176 42.382 55.0444 41.7552 55.0444 40.982V34.5384ZM52.2444 39.5816H47.802V35.938H52.2444V39.5816Z" fill="var(--fill-0, #2A3354)"/>
<path id="Vector_20" d="M8.7136 54.3328H15.9564C16.7296 54.3328 17.3564 53.706 17.3564 52.9328V46.4892C17.3564 45.716 16.7296 45.0892 15.9564 45.0892H8.7136C7.9404 45.0892 7.3136 45.716 7.3136 46.4892V52.9328C7.3136 53.706 7.9404 54.3328 8.7136 54.3328ZM10.1136 47.8892H14.5564V51.5328H10.1136V47.8892Z" fill="var(--fill-0, #2A3354)"/>
<path id="Vector_21" d="M28.5192 45.0892H21.2764C20.5032 45.0892 19.8764 45.716 19.8764 46.4892V52.9328C19.8764 53.706 20.5032 54.3328 21.2764 54.3328H28.5192C29.2924 54.3328 29.9192 53.706 29.9192 52.9328V46.4892C29.9192 45.716 29.2924 45.0892 28.5192 45.0892ZM27.1192 51.5328H22.6764V47.8892H27.1192V51.5328Z" fill="var(--fill-0, #2A3354)"/>
<path id="Vector_22" d="M33.8392 45.0892C33.066 45.0892 32.4392 45.716 32.4392 46.4892V52.9328C32.4392 53.706 33.066 54.3328 33.8392 54.3328H41.082C41.8552 54.3328 42.482 53.706 42.482 52.9328V46.4892C42.482 45.716 41.8552 45.0892 41.082 45.0892H33.8392ZM39.682 51.5328H35.2392V47.8892H39.682V51.5328Z" fill="var(--fill-0, #2A3354)"/>
<path id="Vector_23" d="M53.6444 45.0892H46.402C45.6288 45.0892 45.002 45.716 45.002 46.4892V52.9328C45.002 53.706 45.6288 54.3328 46.402 54.3328H53.6444C54.4176 54.3328 55.0444 53.706 55.0444 52.9328V46.4892C55.0444 45.716 54.4176 45.0892 53.6444 45.0892ZM52.2444 51.5328H47.802V47.8892H52.2444V51.5328Z" fill="var(--fill-0, #2A3354)"/>
<path id="Vector_24" d="M58.9644 54.3328H66.2068C66.98 54.3328 67.6068 53.706 67.6068 52.9328V46.4892C67.6068 45.716 66.98 45.0892 66.2068 45.0892H58.9644C58.1912 45.0892 57.5644 45.716 57.5644 46.4892V52.9328C57.5644 53.706 58.1912 54.3328 58.9644 54.3328ZM60.3644 47.8892H64.8068V51.5328H60.3644V47.8892Z" fill="var(--fill-0, #2A3354)"/>
</g>
</svg>
