<svg preserveAspectRatio="none" width="100%" height="100%" overflow="visible" style="display: block;" viewBox="0 0 80 66.4698" fill="none" xmlns="http://www.w3.org/2000/svg">
<g id="Group">
<path id="Vector" d="M42.189 14.5096C43.7041 14.6117 45.2324 14.3145 46.5949 13.6484C47.9079 13.0066 48.8357 11.8908 49.4381 10.5879C49.6615 10.3453 49.8808 10.1614 50.0961 9.76515C50.3488 9.30021 50.465 8.79584 50.5338 8.27632C50.648 7.41718 50.557 6.50751 50.3094 5.67769C49.8283 4.0615 48.8196 2.64039 47.4924 1.61145C44.7877 -0.484837 40.9115 -0.529312 38.1036 1.43962C35.1462 3.51469 33.9272 7.21099 35.508 10.5485C36.7017 13.0683 39.5389 14.3307 42.189 14.5096ZM38.4938 8.80393C38.4564 8.6978 38.4311 8.60683 38.4938 8.80393ZM39.4954 10.1159C39.6682 10.2372 39.5581 10.1745 39.4954 10.1159ZM38.2512 7.07353C38.2582 7.03714 38.2835 6.82489 38.2926 6.78243C38.325 6.63689 38.3634 6.49235 38.4078 6.35085C38.4169 6.32154 38.4725 6.17902 38.4968 6.10928C38.5847 5.92229 38.6787 5.73732 38.7869 5.56247C38.8425 5.47352 38.9031 5.3876 38.9637 5.30169C38.9728 5.30371 39.1992 5.0207 39.2377 4.98027C39.3397 4.87212 39.4459 4.76903 39.556 4.66896C39.5742 4.65178 39.6895 4.55677 39.7481 4.50522C39.9644 4.34552 40.1898 4.19694 40.4243 4.06656L40.6921 3.92505C40.7154 3.91393 40.8478 3.85834 40.9216 3.826C41.2298 3.71178 41.5422 3.6097 41.8636 3.53996C41.9697 3.51671 42.0779 3.49953 42.185 3.48133C42.2467 3.4783 42.4478 3.45708 42.4791 3.45505C42.7399 3.4409 43.0017 3.44192 43.2625 3.4591C43.317 3.46314 43.6142 3.51772 43.5556 3.50256C43.6526 3.52278 43.7506 3.54198 43.8467 3.56725C43.9922 3.60566 44.1327 3.65821 44.2762 3.70067C44.3197 3.71785 44.35 3.72897 44.3733 3.73807C44.4329 3.76637 44.4925 3.79366 44.5522 3.82297C44.8514 3.97458 45.1364 4.15449 45.4063 4.35361C45.4245 4.36776 45.4426 4.38292 45.4517 4.39202C45.5983 4.53049 45.7509 4.66189 45.8924 4.80744C45.9975 4.9166 46.0956 5.03182 46.1967 5.14401C46.2179 5.17029 46.2149 5.16625 46.229 5.18344L46.3786 5.39771C46.5534 5.66253 46.7051 5.94453 46.8365 6.2336C46.8638 6.30839 46.9133 6.43575 46.9214 6.46102C46.9679 6.60252 47.0073 6.74605 47.0426 6.88958C47.0669 6.98964 47.0851 7.09071 47.1043 7.19179C47.0861 7.13317 47.1356 7.53342 47.1367 7.60316C47.1397 7.75275 47.1306 7.90032 47.1245 8.04991C47.1225 8.10247 47.0942 8.47746 47.1013 8.47443C47.074 8.67657 47.0376 8.88782 47.0386 9.08997C47.0447 9.17892 47.0598 9.26786 47.0709 9.35681C47.0487 9.39117 47.0295 9.42655 47.0063 9.45991C46.9951 9.47709 46.9911 9.48315 46.983 9.49629C46.9689 9.50943 46.9517 9.5256 46.9254 9.55289C47.2933 9.17285 46.1825 10.1381 46.5989 9.83894C46.2492 10.0906 45.8955 10.3069 45.5205 10.5101C45.4457 10.5465 45.3112 10.6132 45.2021 10.6637C45.1445 10.6849 45.0687 10.7142 45.0394 10.7254C44.8129 10.8062 44.5815 10.8729 44.35 10.9356C44.1145 10.9993 43.876 11.0437 43.6375 11.0913C43.6354 11.0913 43.6354 11.0913 43.6334 11.0923C43.501 11.0973 43.3666 11.1185 43.2342 11.1256C42.9886 11.1398 42.7419 11.1418 42.4963 11.1327C42.3962 11.1286 41.9576 11.0771 41.9293 11.0832C41.5038 11.0074 41.0843 10.9123 40.675 10.7668C40.6264 10.7496 40.493 10.693 40.4526 10.6779C40.4061 10.6556 40.3586 10.6354 40.3121 10.6122C40.1008 10.506 39.8957 10.3888 39.6986 10.2594C39.6288 10.2139 39.5611 10.1644 39.4934 10.1159C39.4914 10.1139 39.4873 10.1108 39.4853 10.1088C39.2993 9.91777 39.1032 9.7227 38.9112 9.53773C38.9061 9.53369 38.9061 9.53369 38.9011 9.52965C38.8981 9.52561 38.8981 9.52459 38.895 9.52055C38.8324 9.42251 38.7646 9.3275 38.705 9.22743C38.6444 9.12636 38.5888 9.02326 38.5362 8.91815C38.5251 8.89591 38.5119 8.86154 38.4988 8.82617C38.4341 8.623 38.3644 8.42288 38.3159 8.21365C38.3108 8.19243 38.2754 7.97916 38.2603 7.90841C38.2441 7.73456 38.232 7.56071 38.233 7.38585C38.235 7.27972 38.2441 7.17663 38.2512 7.07353Z" fill="var(--fill-0, #0A3428)"/>
<path id="Vector_2" d="M49.3455 22.4531C46.8813 22.0074 44.3868 21.9033 41.9004 22.2095C40.4621 22.3864 39.0561 22.6532 37.6744 23.0939C36.3039 23.5316 34.7797 24.0986 33.6992 25.078C33.2605 25.4752 33.1988 26.2121 33.4889 26.7083C33.8154 27.2673 34.4087 27.4118 35.0081 27.3269C36.2068 27.1581 37.3944 26.6416 38.5689 26.3384C39.6595 26.0564 40.7805 25.827 41.9004 25.6986C44.2898 25.4257 46.7509 25.5066 49.105 26.0089C49.7488 26.1464 50.3836 26.3647 51.0486 26.2485C51.8148 26.114 52.492 25.4995 52.5082 24.6808C52.5405 22.9908 50.617 22.6836 49.3455 22.4531Z" fill="var(--fill-0, #0A3428)"/>
<path id="Vector_3" d="M17.0841 33.2225C17.0174 33.0648 16.9547 32.9111 16.8567 32.7706C16.7637 32.6393 16.6727 32.5018 16.5605 32.3866C16.4484 32.2693 16.3028 32.1672 16.1684 32.0753C15.9834 31.9499 15.7631 31.866 15.5569 31.7902C15.4052 31.7356 15.2425 31.6962 15.0768 31.675C15.0687 31.672 15.0596 31.6669 15.0515 31.6639C14.8322 31.6053 14.6128 31.6053 14.3945 31.6639C14.3551 31.675 14.3207 31.6962 14.2823 31.7114C13.9518 31.7629 13.6455 31.8428 13.3251 32.0126C12.9421 32.2147 12.559 32.5786 12.3498 32.9607C12.2426 33.1567 12.1446 33.3852 12.0991 33.6076C12.0961 33.6207 12.0951 33.6348 12.092 33.648C11.9253 34.0118 11.8778 34.2049 11.8313 34.6284C11.7827 35.0782 11.9313 35.5199 12.1254 35.9171C12.3225 36.3204 12.6469 36.5983 12.9977 36.8581L13.2301 37.0006C13.4262 37.0936 13.6304 37.1977 13.8457 37.2361C14.063 37.2745 14.2894 37.3069 14.5118 37.32C14.7331 37.3332 14.9575 37.2887 15.1748 37.2553C15.2668 37.2412 15.3547 37.221 15.4427 37.1886C15.6448 37.1148 15.8631 37.033 16.0451 36.9117C16.416 36.662 16.7344 36.3527 16.9557 35.9596C17.3489 35.2611 17.4338 34.4414 17.2489 33.6662C17.2105 33.5115 17.1458 33.37 17.0841 33.2225Z" fill="var(--fill-0, #0A3428)"/>
<path id="Vector_4" d="M77.4645 22.8482C77.0339 23.398 76.854 24.05 76.661 24.6726C76.3294 24.3653 75.9696 24.0894 75.5623 23.8984C74.3059 23.3071 72.9475 23.6447 72.1692 24.8242C71.5759 25.7238 71.4677 26.9195 71.8731 27.911C72.3724 29.133 73.5933 29.8304 74.8901 29.8608C75.0215 29.8638 75.1509 29.8517 75.2793 29.8416C75.1893 30.3045 75.0428 30.7684 74.8639 31.202C74.503 32.0743 73.9815 33.1235 73.4144 33.8168C73.092 34.21 72.7575 34.4324 72.4037 34.5132C72.1358 32.2562 71.299 30.0922 69.8344 28.1071C66.9861 24.243 62.7915 21.7192 58.415 19.916C53.4926 17.8874 48.1164 16.9202 42.7938 17.1173C37.5774 17.3103 32.4822 18.601 27.7873 20.8368C25.973 16.435 22.118 12.8438 17.4675 11.6754C16.4618 11.4227 15.6644 12.1454 15.5785 13.1147C15.3864 15.2646 15.2793 17.4124 15.3339 19.5724C15.3601 20.6306 15.4269 21.6868 15.5279 22.7411C15.5502 22.9705 15.5704 23.204 15.5926 23.4385C12.3036 24.9394 10.2084 27.8463 8.37587 30.9322C6.55147 34.0038 4.73011 37.4848 1.19654 38.8423C0.597164 39.0727 -0.0861046 39.665 0.0089057 40.4018C0.328302 42.8893 0.400063 45.5789 0.995393 48.0138C1.52705 50.1869 4.1277 50.7448 5.91167 51.5726C9.01769 53.0129 12.1096 54.4896 15.252 55.8491C15.251 55.8602 15.2449 55.8673 15.2439 55.8784C15.2287 56.0644 15.1641 56.1705 15.1145 56.3464C15.0387 56.6142 15.0407 56.9397 15.0236 57.2166C14.9963 57.6624 14.97 58.1081 14.9528 58.5539C14.9184 59.4443 14.9114 60.3368 14.8942 61.2283C14.8598 62.9971 14.9882 64.7932 16.6377 65.8373C19.6841 67.7648 23.1833 64.8731 25.1603 62.6959C26.071 61.6932 26.8715 60.5895 27.5376 59.41C36.8729 61.2829 47.3291 61.5831 56.2075 57.8261C57.8297 60.2731 60.3556 62.1107 63.1119 63.1629C63.9063 63.4661 64.7675 63.7592 65.6216 63.8128C66.8052 63.8866 67.8695 63.0679 68.0787 61.8954C68.4072 60.0619 68.1343 58.0111 67.7239 56.215C67.4884 55.183 67.1347 54.1915 66.7193 53.2201C66.5009 52.7087 66.2765 52.2185 66.0006 51.7677C68.6993 48.1674 70.9048 44.0971 72.0338 39.7317C72.2379 38.9433 72.3562 38.161 72.431 37.3848C73.1031 37.3989 73.8278 37.2311 74.407 36.8996C75.5047 36.2709 76.2557 35.1652 76.8662 34.0897C77.8981 32.2734 78.6339 30.2226 78.3873 28.186C78.4894 28.0677 78.5885 27.9484 78.6794 27.8221C79.482 26.7123 80.2168 24.8768 79.9408 23.5042C79.7377 22.4803 78.1427 21.982 77.4645 22.8482ZM65.6954 60.636L65.6994 60.635C65.852 60.6663 65.846 60.6663 65.6954 60.636ZM69.137 37.6759C68.2354 42.298 65.8268 46.7524 62.9158 50.4103C62.2962 51.1896 62.4923 52.1215 63.0068 52.7168C63.1058 52.9766 63.2271 53.2272 63.3626 53.488C63.5617 53.8701 63.777 54.3269 63.8881 54.6099C64.2227 55.465 64.4906 56.3434 64.6846 57.2399C64.8898 58.188 64.9717 58.8773 64.9939 59.9073C64.9949 59.9548 64.9949 60.1893 64.9929 60.4541C63.5404 60.069 62.3862 59.5444 61.0479 58.6721C60.1706 58.101 59.3863 57.4279 58.6272 56.6617C59.1407 56.3899 59.6521 56.1149 60.1524 55.8117C61.9647 54.713 60.3111 51.8627 58.4877 52.9644C54.1142 55.6075 49.3526 56.8376 44.2877 57.2025C38.5578 57.6149 32.7652 57.2146 27.1465 56.026C26.7331 55.9391 26.3722 56.0027 26.069 56.1554C25.7648 56.2787 25.503 56.4899 25.3574 56.7952C25.0037 57.532 24.6014 58.2436 24.1425 58.9208C23.6826 59.6 23.3632 59.9972 22.7527 60.6441C22.2211 61.2091 21.647 61.7357 21.0405 62.2198C20.9951 62.2542 20.8141 62.3927 20.7909 62.4099C20.6029 62.5463 20.4108 62.6777 20.2138 62.8C20.0652 62.892 19.9126 62.9728 19.7609 63.0577C19.5851 63.1386 19.5527 63.1558 19.6649 63.1123C19.5578 63.1538 19.4496 63.1912 19.3395 63.2235C19.2353 63.2538 19.1302 63.2801 19.0231 63.3013C18.9584 63.3034 18.7178 63.2953 18.6875 63.3054C18.6046 63.2852 18.5036 63.2599 18.4439 63.2468C18.4015 63.2114 18.2266 63.1174 18.2206 63.1356L18.1448 63.0618C18.1336 63.0416 18.1225 63.0204 18.0841 62.9607C18.0629 62.8758 18.0275 62.7414 18.0245 62.7303C18.0154 62.6828 18.0093 62.6464 18.0043 62.6191C17.9962 62.5241 17.9891 62.4291 17.9861 62.3341C17.977 62.1703 17.9709 62.0066 17.9659 61.8428C17.9365 60.8826 17.9214 59.9224 17.887 58.9622C17.8698 58.4811 17.8415 58.002 17.8082 57.5219C17.793 57.3086 17.7758 57.0964 17.7546 56.8841C18.2357 57.0792 18.7128 57.2844 19.1979 57.4703C21.1729 58.2284 22.0594 55.0223 20.0743 54.2905C16.2355 52.8755 12.5371 51.1481 8.83678 49.4116C7.96249 49.0013 7.08716 48.5909 6.20984 48.1866C5.69233 47.9481 5.1718 47.7146 4.65329 47.4761C4.06908 47.2072 4.24495 47.3012 4.04381 46.7544C3.72745 45.8993 3.78911 44.7359 3.67388 43.8212C3.57079 43.0025 3.46768 42.1838 3.36358 41.3651C6.46758 39.7469 8.49817 37.0067 10.2902 33.9543C11.96 31.1111 13.5448 28.28 16.196 26.3676C16.8075 27.4168 18.5197 27.1297 18.5703 25.7693C18.6087 24.7252 18.4348 23.6578 18.3651 22.6167C18.2943 21.5625 18.2539 20.5043 18.2408 19.448C18.2236 18.0229 18.265 16.5937 18.3681 15.1706C20.1026 15.9438 21.6247 17.092 22.9074 18.5869C23.8767 19.7179 24.6479 21.0925 25.1603 22.5217C24.8581 23.1777 25.129 23.9873 25.6819 24.4533C25.7274 24.6968 25.7688 24.9404 25.7971 25.182C25.8931 26.0027 26.4319 26.7123 27.3274 26.7123C28.1016 26.7123 28.9274 26.0098 28.8577 25.182C28.8233 24.7797 28.7707 24.3805 28.703 23.9843C36.6455 20.0585 45.8574 19.255 54.3568 21.8981C60.9459 23.9489 70.7713 29.2988 69.137 37.6759Z" fill="var(--fill-0, #0A3428)"/>
</g>
</svg>
