<svg preserveAspectRatio="none" width="100%" height="100%" overflow="visible" style="display: block;" viewBox="0 0 38.88 22.132" fill="none" xmlns="http://www.w3.org/2000/svg">
<path id="M" d="M4.44 22.132C3.432 22.132 2.6 21.956 1.944 21.604C1.288 21.252 0.8 20.796 0.48 20.236C0.16 19.676 0 19.1 0 18.508C0 18.028 0.08 17.596 0.24 17.212C0.56 16.46 1.136 15.804 1.968 15.244C2.8 14.684 3.816 14.404 5.016 14.404C5.16 14.404 5.304 14.412 5.448 14.428C5.608 14.444 5.752 14.468 5.88 14.5C6.056 14.484 6.224 14.428 6.384 14.332C6.544 14.22 6.664 14.124 6.744 14.044C6.824 13.948 6.888 13.852 6.936 13.756C6.984 13.644 7.008 13.548 7.008 13.468C7.008 13.356 6.968 13.276 6.888 13.228C6.84 13.196 6.816 13.164 6.816 13.132C6.816 13.02 6.92 12.996 7.128 13.06C7.432 13.156 7.584 13.348 7.584 13.636C7.584 13.908 7.44 14.14 7.152 14.332C7.04 14.428 6.904 14.5 6.744 14.548C6.6 14.58 6.448 14.596 6.288 14.596C6.832 14.756 7.328 15.036 7.776 15.436L7.896 15.388C8.104 15.324 8.336 15.364 8.592 15.508C8.848 15.652 9.032 15.884 9.144 16.204C9.224 16.444 9.264 16.7 9.264 16.972C9.264 17.26 9.216 17.54 9.12 17.812C9.04 18.084 8.904 18.276 8.712 18.388C8.52 18.5 8.4 18.508 8.352 18.412C8.464 18.316 8.52 18.204 8.52 18.076C8.52 17.948 8.472 17.812 8.376 17.668C8.296 17.54 8.208 17.444 8.112 17.38C8.016 17.3 7.912 17.212 7.8 17.116C7.688 17.004 7.584 16.844 7.488 16.636C7.408 16.476 7.368 16.324 7.368 16.18C7.368 15.972 7.432 15.788 7.56 15.628C6.744 14.972 5.8 14.692 4.728 14.788C3.864 14.868 3.136 15.1 2.544 15.484C1.952 15.852 1.504 16.308 1.2 16.852C0.896 17.396 0.744 17.964 0.744 18.556C0.744 19.34 1 20.036 1.512 20.644L1.464 20.572C1.352 20.348 1.296 20.084 1.296 19.78C1.296 19.588 1.32 19.412 1.368 19.252C1.576 18.724 1.872 18.46 2.256 18.46C2.512 18.46 2.72 18.58 2.88 18.82C2.944 18.9 2.976 18.988 2.976 19.084C2.976 19.228 2.912 19.252 2.784 19.156C2.672 19.076 2.528 19.084 2.352 19.18C2.176 19.292 2.024 19.444 1.896 19.636C1.832 19.716 1.776 19.836 1.728 19.996C1.68 20.156 1.656 20.324 1.656 20.5C1.656 20.596 1.672 20.708 1.704 20.836C2.008 21.14 2.376 21.38 2.808 21.556C3.24 21.732 3.744 21.82 4.32 21.82C5.152 21.82 5.976 21.612 6.792 21.196C7.608 20.796 8.4 20.26 9.168 19.588C9.936 18.916 10.672 18.164 11.376 17.332C12.08 16.5 12.744 15.652 13.368 14.788C13.992 13.908 14.56 13.076 15.072 12.292C15.6 11.508 16.056 10.836 16.44 10.276C17.24 9.092 18.072 7.956 18.936 6.868C19.8 5.78 20.72 4.9 21.696 4.228C20.576 3.86 19.384 3.468 18.12 3.052C16.872 2.636 15.608 2.332 14.328 2.14C13.944 2.06 13.576 2.012 13.224 1.996C13.24 2.012 13.224 2.012 13.176 1.996C12.968 1.964 12.784 2.012 12.624 2.14C12.464 2.252 12.352 2.356 12.288 2.452C12.176 2.644 12.12 2.82 12.12 2.98C12.12 3.124 12.168 3.22 12.264 3.268C12.344 3.3 12.384 3.34 12.384 3.388C12.384 3.452 12.328 3.484 12.216 3.484C12.088 3.484 11.936 3.436 11.76 3.34C11.6 3.244 11.52 3.092 11.52 2.884C11.52 2.676 11.6 2.484 11.76 2.308C11.936 2.132 12.152 2.012 12.408 1.948C11.112 1.916 9.992 2.068 9.048 2.404C8.104 2.74 7.328 3.188 6.72 3.748C6.112 4.292 5.656 4.9 5.352 5.572C5.416 5.572 5.448 5.612 5.448 5.692C5.432 6.028 5.472 6.3 5.568 6.508C5.664 6.716 5.792 6.908 5.952 7.084C6.048 6.908 6.184 6.78 6.36 6.7C6.536 6.62 6.72 6.58 6.912 6.58C7.072 6.58 7.208 6.604 7.32 6.652C7.592 6.748 7.8 6.86 7.944 6.988C8.104 7.1 8.24 7.22 8.352 7.348C8.432 7.444 8.552 7.532 8.712 7.612C8.872 7.692 9.024 7.732 9.168 7.732C9.392 7.732 9.56 7.644 9.672 7.468C9.72 7.516 9.744 7.588 9.744 7.684C9.744 7.924 9.624 8.132 9.384 8.308C9.16 8.484 8.88 8.62 8.544 8.716C8.224 8.812 7.904 8.86 7.584 8.86C7.008 8.86 6.552 8.692 6.216 8.356C5.896 8.004 5.768 7.676 5.832 7.372L5.856 7.324C5.648 7.148 5.496 6.964 5.4 6.772C5.304 6.564 5.216 6.34 5.136 6.1C4.96 6.66 4.872 7.188 4.872 7.684C4.872 8.34 5.008 8.964 5.28 9.556C5.552 10.132 5.952 10.596 6.48 10.948C7.008 11.3 7.648 11.476 8.4 11.476C9.152 11.476 9.88 11.284 10.584 10.9C11.288 10.5 11.856 9.964 12.288 9.292C12.72 8.604 12.904 7.828 12.84 6.964C12.824 6.692 12.728 6.412 12.552 6.124C12.392 5.836 12.152 5.692 11.832 5.692C11.752 5.692 11.664 5.708 11.568 5.74C11.472 5.772 11.408 5.828 11.376 5.908C11.36 5.956 11.328 5.98 11.28 5.98C11.2 5.98 11.16 5.908 11.16 5.764C11.16 5.54 11.24 5.356 11.4 5.212C11.576 5.068 11.768 4.996 11.976 4.996C12.2 4.996 12.416 5.108 12.624 5.332C12.848 5.556 12.968 5.948 12.984 6.508C13.032 6.364 13.096 6.22 13.176 6.076C13.352 5.836 13.56 5.716 13.8 5.716C14.056 5.716 14.224 5.836 14.304 6.076C14.336 6.172 14.336 6.244 14.304 6.292C14.272 6.34 14.224 6.332 14.16 6.268C14.112 6.22 14.056 6.196 13.992 6.196C13.864 6.196 13.696 6.268 13.488 6.412C13.44 6.46 13.384 6.532 13.32 6.628C13.256 6.724 13.208 6.836 13.176 6.964C13.208 7.94 13.024 8.78 12.624 9.484C12.224 10.188 11.704 10.74 11.064 11.14C11.144 11.124 11.216 11.116 11.28 11.116C11.344 11.1 11.408 11.092 11.472 11.092C11.792 11.092 12.048 11.18 12.24 11.356C12.448 11.516 12.552 11.692 12.552 11.884C12.552 12.092 12.448 12.268 12.24 12.412C12.128 12.476 12.04 12.5 11.976 12.484C11.912 12.452 11.912 12.396 11.976 12.316C12.056 12.22 12.048 12.1 11.952 11.956C11.872 11.812 11.752 11.684 11.592 11.572C11.416 11.428 11.176 11.356 10.872 11.356C10.84 11.356 10.8 11.356 10.752 11.356C10.704 11.356 10.664 11.364 10.632 11.38C9.944 11.7 9.216 11.86 8.448 11.86C7.472 11.86 6.64 11.668 5.952 11.284C5.28 10.884 4.752 10.388 4.368 9.796C4.368 9.892 4.352 10.004 4.32 10.132C4.224 10.436 4.056 10.7 3.816 10.924C3.896 11.084 3.936 11.252 3.936 11.428C3.936 11.828 3.768 12.196 3.432 12.532C3.24 12.74 2.96 12.924 2.592 13.084C2.224 13.228 1.872 13.3 1.536 13.3C1.264 13.3 1.04 13.236 0.864 13.108C0.752 13.028 0.688 12.956 0.672 12.892C0.656 12.812 0.656 12.764 0.672 12.748C0.72 12.78 0.792 12.796 0.888 12.796C1.08 12.796 1.248 12.708 1.392 12.532C1.552 12.34 1.648 12.164 1.68 12.004C1.712 11.844 1.76 11.676 1.824 11.5C1.888 11.324 2 11.14 2.16 10.948C2.4 10.66 2.704 10.516 3.072 10.516C3.328 10.516 3.536 10.596 3.696 10.756C3.856 10.564 3.976 10.308 4.056 9.988C4.072 9.908 4.08 9.828 4.08 9.748C4.096 9.668 4.104 9.596 4.104 9.532C4.104 9.388 4.096 9.284 4.08 9.22C3.84 8.644 3.72 8.028 3.72 7.372C3.72 6.812 3.808 6.252 3.984 5.692C4.176 5.116 4.464 4.58 4.848 4.084C4.784 4.1 4.704 4.116 4.608 4.132C4.528 4.132 4.448 4.132 4.368 4.132C4.16 4.132 3.952 4.092 3.744 4.012C3.552 3.932 3.376 3.812 3.216 3.652C3.168 3.668 3.096 3.676 3 3.676C2.776 3.676 2.536 3.588 2.28 3.412C2.04 3.236 1.856 2.996 1.728 2.692C1.632 2.452 1.584 2.164 1.584 1.828C1.584 1.46 1.64 1.108 1.752 0.772C1.864 0.436001 2.032 0.212001 2.256 0.1C2.384 0.0200002 2.48 -0.0119999 2.544 0.00399991C2.608 0.0200007 2.656 0.0360009 2.688 0.0520007C2.56 0.164 2.496 0.308 2.496 0.484001C2.496 0.644001 2.544 0.804001 2.64 0.964C2.736 1.108 2.84 1.22 2.952 1.3C3.08 1.396 3.208 1.508 3.336 1.636C3.48 1.764 3.608 1.94 3.72 2.164C3.8 2.356 3.84 2.532 3.84 2.692C3.84 3.076 3.704 3.364 3.432 3.556C3.656 3.748 3.952 3.844 4.32 3.844H4.464C4.688 3.844 4.92 3.804 5.16 3.724C5.784 3.02 6.616 2.444 7.656 1.996C8.696 1.548 9.96 1.324 11.448 1.324C11.816 1.324 12.192 1.34 12.576 1.372C12.96 1.404 13.352 1.452 13.752 1.516C14.6 1.644 15.52 1.852 16.512 2.14C17.52 2.428 18.512 2.732 19.488 3.052C20.464 3.372 21.336 3.668 22.104 3.94C22.568 3.668 23.04 3.452 23.52 3.292C24 3.132 24.496 3.052 25.008 3.052C25.456 3.052 25.792 3.148 26.016 3.34C26.256 3.532 26.376 3.748 26.376 3.988C26.376 4.244 26.232 4.476 25.944 4.684C25.672 4.892 25.24 4.988 24.648 4.972C24.216 5.612 23.824 6.316 23.472 7.084C23.12 7.852 22.8 8.62 22.512 9.388C22.24 10.156 22.008 10.868 21.816 11.524C21.576 12.34 21.312 13.116 21.024 13.852C20.752 14.588 20.336 15.26 19.776 15.868C20.768 15.116 21.672 14.252 22.488 13.276C23.32 12.3 24.072 11.3 24.744 10.276C25.192 9.588 25.736 8.812 26.376 7.948C27.016 7.068 27.72 6.188 28.488 5.308C29.256 4.412 30.048 3.58 30.864 2.812C31.696 2.028 32.528 1.388 33.36 0.892C34.192 0.38 34.984 0.0920002 35.736 0.028001C35.832 0.0120003 35.928 0.00399991 36.024 0.00399991C36.12 0.00399991 36.208 0.00399991 36.288 0.00399991C37.216 0.00399991 37.88 0.204 38.28 0.604001C38.68 0.988001 38.88 1.404 38.88 1.852C38.88 2.14 38.8 2.412 38.64 2.668C38.48 2.908 38.264 3.076 37.992 3.172L37.944 2.932C38.328 2.708 38.52 2.388 38.52 1.972C38.52 1.652 38.376 1.356 38.088 1.084C37.816 0.812 37.4 0.676 36.84 0.676C36.552 0.676 36.224 0.724 35.856 0.820001C35.28 0.980001 34.64 1.308 33.936 1.804C33.232 2.3 32.496 2.892 31.728 3.58C30.976 4.268 30.232 5.004 29.496 5.788C28.776 6.556 28.104 7.3 27.48 8.02C26.856 8.74 26.32 9.372 25.872 9.916C25.44 10.46 25.136 10.852 24.96 11.092C24.672 11.492 24.304 11.972 23.856 12.532C23.424 13.092 22.928 13.668 22.368 14.26C21.824 14.836 21.248 15.38 20.64 15.892C20.032 16.388 19.416 16.796 18.792 17.116C18.168 17.42 17.56 17.572 16.968 17.572C16.648 17.572 16.488 17.54 16.488 17.476C16.488 17.396 16.592 17.308 16.8 17.212C17.008 17.116 17.144 17.036 17.208 16.972C17.288 16.908 17.424 16.716 17.616 16.396C17.808 16.076 18.032 15.692 18.288 15.244C18.56 14.78 18.832 14.3 19.104 13.804C19.392 13.308 19.648 12.852 19.872 12.436C20.096 12.004 20.264 11.66 20.376 11.404C20.472 11.212 20.648 10.868 20.904 10.372C21.16 9.86 21.472 9.284 21.84 8.644C22.208 7.988 22.592 7.332 22.992 6.676C23.408 6.004 23.816 5.42 24.216 4.924C24.104 4.908 23.976 4.884 23.832 4.852C23.688 4.82 23.536 4.788 23.376 4.756L22.68 4.54C22.168 4.972 21.664 5.484 21.168 6.076C20.672 6.668 20.208 7.276 19.776 7.9C19.36 8.508 18.984 9.084 18.648 9.628C18.312 10.172 18.04 10.612 17.832 10.948C17.352 11.764 16.76 12.668 16.056 13.66C15.352 14.652 14.56 15.644 13.68 16.636C12.8 17.628 11.856 18.54 10.848 19.372C9.856 20.204 8.816 20.868 7.728 21.364C6.64 21.876 5.544 22.132 4.44 22.132ZM25.104 4.588C25.376 4.572 25.592 4.5 25.752 4.372C25.912 4.244 25.992 4.1 25.992 3.94C25.992 3.796 25.912 3.668 25.752 3.556C25.608 3.444 25.36 3.388 25.008 3.388C24.704 3.404 24.384 3.492 24.048 3.652C23.712 3.796 23.376 3.996 23.04 4.252C23.312 4.348 23.56 4.42 23.784 4.468C24.008 4.516 24.256 4.548 24.528 4.564C24.64 4.436 24.744 4.324 24.84 4.228C24.952 4.116 25.064 4.028 25.176 3.964L25.32 4.036C25.256 4.116 25.192 4.204 25.128 4.3C25.064 4.396 24.992 4.492 24.912 4.588H25.104ZM27 19.564C26.664 19.564 26.36 19.46 26.088 19.252C25.88 19.108 25.728 18.892 25.632 18.604C25.536 18.316 25.488 17.996 25.488 17.644C25.488 17.356 25.512 17.052 25.56 16.732C25.624 16.412 25.704 16.084 25.8 15.748C26.072 14.82 26.488 13.796 27.048 12.676C27.624 11.556 28.28 10.42 29.016 9.268C29.752 8.116 30.528 7.036 31.344 6.028C32.176 5.004 32.984 4.132 33.768 3.412L33.912 3.58C33.384 4.22 32.848 4.972 32.304 5.836C31.776 6.684 31.256 7.588 30.744 8.548C30.248 9.508 29.776 10.476 29.328 11.452C28.896 12.412 28.52 13.332 28.2 14.212C28.184 14.26 28.12 14.428 28.008 14.716C27.912 15.004 27.8 15.364 27.672 15.796C27.56 16.212 27.456 16.636 27.36 17.068C27.264 17.5 27.216 17.876 27.216 18.196C27.216 18.42 27.248 18.604 27.312 18.748C27.376 18.892 27.48 18.964 27.624 18.964C27.768 18.964 27.96 18.892 28.2 18.748C28.312 18.668 28.416 18.588 28.512 18.508C28.608 18.444 28.704 18.364 28.8 18.268L28.992 18.484C28.768 18.74 28.472 18.98 28.104 19.204C27.752 19.444 27.384 19.564 27 19.564Z" fill="var(--fill-0, #F9F2E8)"/>
</svg>
