<svg preserveAspectRatio="none" width="100%" height="100%" overflow="visible" style="display: block;" viewBox="0 0 16 17" fill="none" xmlns="http://www.w3.org/2000/svg">
<path id="&#38;" d="M3.99533 17C3.92065 17 3.89576 16.9508 3.92065 16.8523C3.9331 16.7539 3.8522 16.6801 3.67795 16.6308C3.50369 16.5816 3.36678 16.5693 3.26721 16.5939C2.95605 16.6678 2.63866 16.7047 2.31505 16.7047C1.69273 16.7047 1.1513 16.5385 0.690782 16.2063C0.230261 15.8864 0 15.4187 0 14.8035C0 14.4589 0.0933489 14.0651 0.280047 13.6221C0.55387 12.9946 0.983275 12.4224 1.56826 11.9055C2.15325 11.3887 2.76935 10.9149 3.41657 10.4843C2.90626 10.0166 2.65111 9.44444 2.65111 8.76764C2.65111 8.2139 2.83781 7.654 3.2112 7.08795C3.59704 6.50959 4.18825 6.01122 4.98483 5.59283C5.14664 5.5067 5.39557 5.40825 5.73162 5.2975C6.08012 5.17445 6.46597 5.05755 6.88915 4.9468C7.32478 4.82374 7.75418 4.7376 8.17736 4.68838C8.12758 4.56533 8.07779 4.43612 8.028 4.30076C7.99067 4.1654 7.96577 4.01773 7.95332 3.85776C7.45546 3.83315 6.9825 3.77778 6.53442 3.69164C6.08635 3.5932 5.70051 3.46399 5.3769 3.30402C5.32711 3.29171 5.27732 3.28556 5.22754 3.28556C5.17775 3.27325 5.12174 3.2671 5.05951 3.2671C4.81058 3.2671 4.6301 3.32248 4.51809 3.43322C4.66744 3.50706 4.74212 3.64242 4.74212 3.83931C4.74212 3.87622 4.74212 3.91314 4.74212 3.95005C4.74212 3.98697 4.72968 4.02389 4.70478 4.0608C4.655 4.18386 4.59899 4.27615 4.53676 4.33768C4.48697 4.3869 4.43096 4.44227 4.36873 4.5038C4.24426 4.60224 4.18203 4.7253 4.18203 4.87296C4.18203 4.9468 4.21937 5.01448 4.29405 5.076C4.26916 5.10062 4.23804 5.11292 4.2007 5.11292C4.0389 5.11292 3.91443 5.00832 3.8273 4.79913C3.75263 4.58994 3.71529 4.3869 3.71529 4.19001C3.71529 3.90698 3.79619 3.69779 3.95799 3.56243C4.13224 3.41477 4.28783 3.35939 4.42474 3.39631C4.53676 3.24864 4.68611 3.1625 4.87281 3.13789C4.9226 3.12559 4.98483 3.11943 5.05951 3.11943C4.59899 2.8241 4.26916 2.51647 4.07001 2.19652C3.87087 1.87658 3.77129 1.5751 3.77129 1.29207C3.77129 0.935215 3.90821 0.633731 4.18203 0.387622C4.4683 0.129207 4.83547 0 5.28355 0C5.6445 0 6.00545 0.0861382 6.36639 0.258415C6.45352 0.295331 6.5282 0.3384 6.59043 0.387622C6.66511 0.424538 6.73979 0.47376 6.81447 0.535287C6.92649 0.547593 7.08207 0.522982 7.28121 0.461454C7.48036 0.399927 7.56748 0.307636 7.54259 0.184582V0.147665C7.54259 0.0861375 7.56126 0.0492212 7.5986 0.0369159C7.64839 0.0246106 7.68573 0.0369163 7.71062 0.0738329C7.7853 0.147666 7.82264 0.239956 7.82264 0.350706C7.82264 0.510677 7.72929 0.633731 7.54259 0.719869C7.46791 0.744481 7.39323 0.756786 7.31855 0.756786C7.21898 0.756786 7.11941 0.738328 7.01984 0.701411C7.19409 0.873688 7.34345 1.08288 7.46791 1.32899C7.4928 1.3536 7.50525 1.37821 7.50525 1.40282C7.61727 1.41513 7.71684 1.48281 7.80397 1.60586C7.90354 1.72892 7.95332 1.88274 7.95332 2.06732C7.95332 2.2519 7.89109 2.46109 7.76663 2.6949C7.64216 2.91639 7.50525 3.03945 7.35589 3.06406C7.23143 3.07637 7.16919 3.05791 7.16919 3.00869C7.26877 2.97177 7.31855 2.88563 7.31855 2.75027C7.31855 2.62722 7.28744 2.52262 7.2252 2.43648C7.18786 2.37495 7.1443 2.30727 7.09452 2.23344C7.05718 2.1473 7.03851 2.0304 7.03851 1.88274C7.03851 1.77199 7.06962 1.66739 7.13185 1.56895C7.19409 1.4705 7.28121 1.41513 7.39323 1.40282L7.37456 1.36591C7.27499 1.15671 7.11941 0.965979 6.90782 0.793702C6.69623 0.60912 6.48464 0.467608 6.27305 0.369164C6.01167 0.258414 5.76274 0.20304 5.52625 0.20304C5.16531 0.20304 4.86659 0.313789 4.6301 0.535287C4.39362 0.756786 4.27538 1.02751 4.27538 1.34745C4.27538 1.59356 4.35628 1.85813 4.51809 2.14115C4.69234 2.41187 4.96616 2.67029 5.33956 2.9164C5.68806 3.13789 6.08635 3.30402 6.53442 3.41477C6.9825 3.52552 7.45546 3.5932 7.95332 3.61781C7.95332 3.51936 7.95955 3.42092 7.972 3.32248C7.99689 3.21173 8.02178 3.10098 8.04667 2.99023C8.18359 2.44879 8.44496 2.00579 8.83081 1.66124C9.21665 1.31668 9.65228 1.06442 10.1377 0.904451C10.6231 0.74448 11.0774 0.664494 11.5006 0.664494C12.0607 0.664494 12.4652 0.769091 12.7141 0.978284C12.9755 1.17517 13.1062 1.40898 13.1062 1.6797C13.1062 1.9135 13.0253 2.1473 12.8635 2.38111C12.7017 2.61491 12.4776 2.81795 12.1914 2.99023C11.7184 3.26095 11.1645 3.47014 10.5298 3.61781C9.89498 3.75317 9.25399 3.83315 8.60677 3.85776C8.63166 4.17771 8.71256 4.43612 8.84947 4.63301C9.14819 4.63301 9.40957 4.66377 9.63361 4.7253C9.87009 4.78683 10.0443 4.89757 10.1564 5.05755C10.1937 5.10677 10.2124 5.16214 10.2124 5.22367C10.2124 5.30981 10.1564 5.38979 10.0443 5.46363C9.94477 5.52515 9.79541 5.55592 9.59627 5.55592C9.4718 5.55592 9.33489 5.53746 9.18553 5.50054C8.88681 5.42671 8.63788 5.27904 8.43874 5.05755C7.97822 5.09446 7.44924 5.18675 6.85181 5.33442C6.25438 5.48208 5.70673 5.74665 5.20887 6.12812C4.68611 6.5342 4.30027 6.98335 4.05134 7.47557C3.80241 7.95548 3.67795 8.42924 3.67795 8.89685C3.67795 9.35215 3.79619 9.75208 4.03267 10.0966C4.94127 9.55519 5.88098 9.05682 6.85181 8.60152C7.83508 8.14622 8.70634 7.72783 9.46558 7.34636C9.82653 7.17409 10.2559 6.98335 10.7538 6.77416C11.2517 6.55266 11.7682 6.30655 12.3034 6.03583C12.8386 5.7528 13.3364 5.44517 13.797 5.11292C14.2699 4.78067 14.6496 4.41766 14.9358 4.02389C15.2221 3.61781 15.3652 3.18096 15.3652 2.71336C15.3652 2.31958 15.2532 1.97503 15.0292 1.6797C14.8051 1.37206 14.4629 1.21209 14.0023 1.19978L14.189 1.07057C14.7865 1.08288 15.2345 1.26746 15.5333 1.62432C15.8444 1.98118 16 2.39341 16 2.86102C16 3.30402 15.8631 3.71625 15.5893 4.09772C15.3279 4.46688 14.9794 4.81144 14.5438 5.13138C14.1081 5.45132 13.6289 5.7405 13.1062 5.99891C12.5959 6.25733 12.0918 6.49729 11.5939 6.71878C11.6437 6.7557 11.6748 6.82338 11.6873 6.92182C11.7246 7.11871 11.7433 7.3156 11.7433 7.51249C11.7433 8.14006 11.5566 8.68766 11.1832 9.15527C10.8098 9.61057 10.3306 9.99819 9.74562 10.3181C9.16064 10.6258 8.55698 10.8596 7.93466 11.0195C7.21276 11.2041 6.55309 11.2964 5.95566 11.2964C5.49514 11.2964 5.07818 11.2472 4.70478 11.1488C4.34384 11.038 4.02645 10.8965 3.75263 10.7242C3.16764 11.1426 2.63866 11.6041 2.16569 12.1086C1.69273 12.6131 1.33178 13.1545 1.08285 13.7329C0.883703 14.2005 0.784131 14.6189 0.784131 14.9881C0.784131 15.4064 0.902373 15.7387 1.13886 15.9848C1.38779 16.2432 1.69895 16.4032 2.07235 16.4647C2.28394 16.477 2.49553 16.4278 2.70712 16.317C2.93116 16.2186 3.08674 16.0709 3.17386 15.874C3.03695 15.8617 2.92493 15.7941 2.83781 15.671C2.75068 15.548 2.70712 15.4187 2.70712 15.2834C2.70712 15.148 2.73201 15.0311 2.7818 14.9327C2.83158 14.8342 2.88137 14.7543 2.93116 14.6927C2.95605 14.6435 2.97472 14.5881 2.98716 14.5266C2.99961 14.4774 3.00583 14.422 3.00583 14.3605C3.00583 14.299 2.99339 14.2374 2.96849 14.1759C2.9436 14.1144 2.89382 14.0713 2.81914 14.0467C2.86892 13.9975 2.93116 13.9729 3.00583 13.9729C3.10541 13.9729 3.19876 14.0036 3.28588 14.0651C3.38545 14.139 3.45391 14.2005 3.49125 14.2497C3.59082 14.3728 3.65928 14.5143 3.69662 14.6743C3.7464 14.8465 3.77129 15.0004 3.77129 15.1357C3.77129 15.3203 3.72151 15.4803 3.62194 15.6156C3.52236 15.751 3.41035 15.831 3.28588 15.8556C3.23609 16.0402 3.12408 16.2001 2.94982 16.3355C2.91249 16.3601 2.8627 16.3847 2.80047 16.4093C2.73823 16.4463 2.676 16.477 2.61377 16.5016C3.07429 16.477 3.55348 16.3355 4.05134 16.0771C4.5492 15.831 5.00972 15.4741 5.43291 15.0065C5.49514 14.8835 5.52625 14.7543 5.52625 14.6189C5.52625 14.4466 5.48269 14.2497 5.39557 14.0282C5.33333 13.8436 5.30222 13.6837 5.30222 13.5483C5.30222 13.3391 5.352 13.1484 5.45158 12.9761C5.55115 12.8038 5.66939 12.6562 5.8063 12.5331C5.95566 12.4224 6.08635 12.367 6.19837 12.367C6.36017 12.367 6.44107 12.4101 6.44107 12.4962C6.25438 12.5823 6.16103 12.73 6.16103 12.9392C6.16103 13.0499 6.19837 13.173 6.27305 13.3084C6.37262 13.456 6.44107 13.5975 6.47841 13.7329C6.51575 13.8806 6.53442 14.0221 6.53442 14.1574C6.53442 14.3543 6.49086 14.5328 6.40373 14.6927C6.32905 14.865 6.22326 15.0065 6.08635 15.1173C6.22326 15.1419 6.31661 15.1726 6.36639 15.2096C6.47841 15.2834 6.53442 15.4064 6.53442 15.5787C6.53442 15.7387 6.49086 15.8556 6.40373 15.9294C6.37884 15.954 6.35395 15.9663 6.32905 15.9663C6.30416 15.9663 6.29172 15.911 6.29172 15.8002C6.29172 15.7141 6.22948 15.6402 6.10502 15.5787C5.993 15.5295 5.86853 15.4864 5.73162 15.4495C5.59471 15.4126 5.48269 15.3941 5.39557 15.3941H5.3769C4.91637 15.8248 4.40607 16.1571 3.84597 16.3909C3.85842 16.3909 3.86464 16.3909 3.86464 16.3909C3.87709 16.4032 3.88954 16.4093 3.90198 16.4093C4.07624 16.4955 4.16336 16.6062 4.16336 16.7416C4.16336 16.8277 4.13224 16.9016 4.07001 16.9631C4.04512 16.9877 4.02023 17 3.99533 17ZM8.60677 3.59935C9.29133 3.57474 9.95099 3.45784 10.5858 3.24864C11.2205 3.03945 11.7433 2.76258 12.154 2.41802C12.515 2.09808 12.6954 1.7966 12.6954 1.51357C12.6954 1.34129 12.6145 1.19978 12.4527 1.08903C12.2909 0.978284 12.0296 0.92291 11.6686 0.92291C11.3201 0.92291 10.9405 0.996743 10.5298 1.14441C10.119 1.29207 9.74562 1.52588 9.40957 1.84582C9.07351 2.15346 8.83703 2.55954 8.70012 3.06406C8.63788 3.27325 8.60677 3.45168 8.60677 3.59935ZM6.10502 11.0011C6.61532 11.0011 7.18786 10.9026 7.82264 10.7058C8.40762 10.5089 8.95527 10.2381 9.46558 9.89359C9.98833 9.53674 10.4053 9.1122 10.7165 8.61998C11.0276 8.11545 11.1645 7.5494 11.1272 6.92182C10.8409 7.04488 10.5671 7.16178 10.3057 7.27253C10.0568 7.37097 9.83275 7.46942 9.63361 7.56786C8.86192 7.94933 7.99067 8.36772 7.01984 8.82302C6.06145 9.27832 5.14041 9.79515 4.25671 10.3735C4.4683 10.5704 4.72345 10.7242 5.02217 10.835C5.33333 10.9457 5.69428 11.0011 6.10502 11.0011Z" fill="var(--fill-0, #F9F2E8)"/>
</svg>
